G04 #@! TF.FileFunction,Soldermask,Top*
%FSLAX46Y46*%
G04 Gerber Fmt 4.6, Leading zero omitted, Abs format (unit mm)*
G04 Created by KiCad (PCBNEW 0.201503020946+5465~21~ubuntu14.04.1-product) date Mon 02 Mar 2015 21:37:45 CET*
%MOMM*%
G01*
G04 APERTURE LIST*
%ADD10C,0.100000*%
%ADD11R,0.700000X0.600000*%
%ADD12O,1.501140X2.499360*%
%ADD13R,1.397000X0.889000*%
%ADD14R,0.889000X1.397000*%
%ADD15R,1.143000X0.508000*%
%ADD16C,2.311400*%
%ADD17R,2.032000X2.032000*%
%ADD18O,2.032000X2.032000*%
%ADD19R,2.032000X1.727200*%
%ADD20O,2.032000X1.727200*%
%ADD21C,2.000000*%
%ADD22O,2.000000X2.200000*%
%ADD23C,1.998980*%
G04 APERTURE END LIST*
D10*
D11*
X110744000Y-64451000D03*
X110744000Y-65851000D03*
D12*
X116840000Y-58420000D03*
X114300000Y-58420000D03*
X119380000Y-58420000D03*
D13*
X113538000Y-64579500D03*
X113538000Y-66484500D03*
X109982000Y-77660500D03*
X109982000Y-79565500D03*
D14*
X101409500Y-79502000D03*
X99504500Y-79502000D03*
X99504500Y-81915000D03*
X101409500Y-81915000D03*
D13*
X112268000Y-77660500D03*
X112268000Y-79565500D03*
X124206000Y-81343500D03*
X124206000Y-79438500D03*
D14*
X111823500Y-81407000D03*
X109918500Y-81407000D03*
D15*
X105156000Y-72136000D03*
X105156000Y-73406000D03*
X105156000Y-74676000D03*
X105156000Y-75946000D03*
X98806000Y-75946000D03*
X98806000Y-74676000D03*
X98806000Y-73406000D03*
X98806000Y-72136000D03*
X120777000Y-77597000D03*
X120777000Y-78867000D03*
X120777000Y-80137000D03*
X120777000Y-81407000D03*
X114427000Y-81407000D03*
X114427000Y-80137000D03*
X114427000Y-78867000D03*
X114427000Y-77597000D03*
D16*
X104140000Y-54610000D03*
X129540000Y-54610000D03*
D17*
X134620000Y-87439500D03*
D18*
X134620000Y-82359500D03*
D17*
X134620000Y-77025500D03*
D18*
X134620000Y-71945500D03*
D19*
X128714500Y-83566000D03*
D20*
X128714500Y-81026000D03*
X128714500Y-78486000D03*
D21*
X120229000Y-89027000D03*
X117729000Y-89027000D03*
X115229000Y-89027000D03*
D22*
X122829000Y-85727000D03*
X112629000Y-85727000D03*
D21*
X106132000Y-89281000D03*
X103632000Y-89281000D03*
X101132000Y-89281000D03*
D22*
X108732000Y-85981000D03*
X98532000Y-85981000D03*
D23*
X119517686Y-67257186D03*
X123054110Y-70793610D03*
M02*
