G04 #@! TF.FileFunction,Legend,Bot*
%FSLAX46Y46*%
G04 Gerber Fmt 4.6, Leading zero omitted, Abs format (unit mm)*
G04 Created by KiCad (PCBNEW 0.201503020946+5465~21~ubuntu14.04.1-product) date Mon 02 Mar 2015 21:37:45 CET*
%MOMM*%
G01*
G04 APERTURE LIST*
%ADD10C,0.100000*%
%ADD11C,0.150000*%
%ADD12C,0.127000*%
%ADD13R,1.397000X0.889000*%
%ADD14R,0.889000X1.397000*%
%ADD15O,1.501140X2.499360*%
%ADD16C,2.311400*%
%ADD17R,2.032000X2.032000*%
%ADD18O,2.032000X2.032000*%
%ADD19R,2.032000X1.727200*%
%ADD20O,2.032000X1.727200*%
%ADD21C,2.000000*%
%ADD22O,2.000000X2.200000*%
%ADD23C,1.998980*%
G04 APERTURE END LIST*
D10*
D11*
X101981000Y-73279000D02*
G75*
G03X101981000Y-73279000I-127000J0D01*
G01*
X101854000Y-74422000D02*
X101854000Y-73406000D01*
X101854000Y-73406000D02*
X100330000Y-73406000D01*
X100330000Y-73406000D02*
X100330000Y-74422000D01*
X100330000Y-75438000D02*
X100330000Y-76454000D01*
X100330000Y-76454000D02*
X101854000Y-76454000D01*
X101854000Y-76454000D02*
X101854000Y-75438000D01*
X120142000Y-75692000D02*
G75*
G03X120142000Y-75692000I-127000J0D01*
G01*
X120015000Y-74549000D02*
X120015000Y-75565000D01*
X120015000Y-75565000D02*
X121539000Y-75565000D01*
X121539000Y-75565000D02*
X121539000Y-74549000D01*
X121539000Y-73533000D02*
X121539000Y-72517000D01*
X121539000Y-72517000D02*
X120015000Y-72517000D01*
X120015000Y-72517000D02*
X120015000Y-73533000D01*
X115697000Y-72644000D02*
G75*
G03X115697000Y-72644000I-127000J0D01*
G01*
X116713000Y-72644000D02*
X115697000Y-72644000D01*
X115697000Y-72644000D02*
X115697000Y-74168000D01*
X115697000Y-74168000D02*
X116713000Y-74168000D01*
X117729000Y-74168000D02*
X118745000Y-74168000D01*
X118745000Y-74168000D02*
X118745000Y-72644000D01*
X118745000Y-72644000D02*
X117729000Y-72644000D01*
X104140000Y-73279000D02*
G75*
G03X104140000Y-73279000I-127000J0D01*
G01*
X104013000Y-74422000D02*
X104013000Y-73406000D01*
X104013000Y-73406000D02*
X102489000Y-73406000D01*
X102489000Y-73406000D02*
X102489000Y-74422000D01*
X102489000Y-75438000D02*
X102489000Y-76454000D01*
X102489000Y-76454000D02*
X104013000Y-76454000D01*
X104013000Y-76454000D02*
X104013000Y-75438000D01*
X99607643Y-73429953D02*
X99655262Y-73382334D01*
X99702881Y-73239477D01*
X99702881Y-73144239D01*
X99655262Y-73001381D01*
X99560024Y-72906143D01*
X99464786Y-72858524D01*
X99274310Y-72810905D01*
X99131452Y-72810905D01*
X98940976Y-72858524D01*
X98845738Y-72906143D01*
X98750500Y-73001381D01*
X98702881Y-73144239D01*
X98702881Y-73239477D01*
X98750500Y-73382334D01*
X98798119Y-73429953D01*
X98798119Y-73810905D02*
X98750500Y-73858524D01*
X98702881Y-73953762D01*
X98702881Y-74191858D01*
X98750500Y-74287096D01*
X98798119Y-74334715D01*
X98893357Y-74382334D01*
X98988595Y-74382334D01*
X99131452Y-74334715D01*
X99702881Y-73763286D01*
X99702881Y-74382334D01*
X98702881Y-75001381D02*
X98702881Y-75096620D01*
X98750500Y-75191858D01*
X98798119Y-75239477D01*
X98893357Y-75287096D01*
X99083833Y-75334715D01*
X99321929Y-75334715D01*
X99512405Y-75287096D01*
X99607643Y-75239477D01*
X99655262Y-75191858D01*
X99702881Y-75096620D01*
X99702881Y-75001381D01*
X99655262Y-74906143D01*
X99607643Y-74858524D01*
X99512405Y-74810905D01*
X99321929Y-74763286D01*
X99083833Y-74763286D01*
X98893357Y-74810905D01*
X98798119Y-74858524D01*
X98750500Y-74906143D01*
X98702881Y-75001381D01*
X99702881Y-76287096D02*
X99702881Y-75715667D01*
X99702881Y-76001381D02*
X98702881Y-76001381D01*
X98845738Y-75906143D01*
X98940976Y-75810905D01*
X98988595Y-75715667D01*
D12*
X124487214Y-73551143D02*
X124523500Y-73587429D01*
X124632357Y-73623714D01*
X124704928Y-73623714D01*
X124813785Y-73587429D01*
X124886357Y-73514857D01*
X124922642Y-73442286D01*
X124958928Y-73297143D01*
X124958928Y-73188286D01*
X124922642Y-73043143D01*
X124886357Y-72970571D01*
X124813785Y-72898000D01*
X124704928Y-72861714D01*
X124632357Y-72861714D01*
X124523500Y-72898000D01*
X124487214Y-72934286D01*
X123834071Y-73115714D02*
X123834071Y-73623714D01*
X124015500Y-72825429D02*
X124196928Y-73369714D01*
X123725214Y-73369714D01*
X123289786Y-72861714D02*
X123217214Y-72861714D01*
X123144643Y-72898000D01*
X123108357Y-72934286D01*
X123072071Y-73006857D01*
X123035786Y-73152000D01*
X123035786Y-73333429D01*
X123072071Y-73478571D01*
X123108357Y-73551143D01*
X123144643Y-73587429D01*
X123217214Y-73623714D01*
X123289786Y-73623714D01*
X123362357Y-73587429D01*
X123398643Y-73551143D01*
X123434928Y-73478571D01*
X123471214Y-73333429D01*
X123471214Y-73152000D01*
X123434928Y-73006857D01*
X123398643Y-72934286D01*
X123362357Y-72898000D01*
X123289786Y-72861714D01*
X122310072Y-73623714D02*
X122745500Y-73623714D01*
X122527786Y-73623714D02*
X122527786Y-72861714D01*
X122600357Y-72970571D01*
X122672929Y-73043143D01*
X122745500Y-73079429D01*
D11*
X118340047Y-75668143D02*
X118387666Y-75715762D01*
X118530523Y-75763381D01*
X118625761Y-75763381D01*
X118768619Y-75715762D01*
X118863857Y-75620524D01*
X118911476Y-75525286D01*
X118959095Y-75334810D01*
X118959095Y-75191952D01*
X118911476Y-75001476D01*
X118863857Y-74906238D01*
X118768619Y-74811000D01*
X118625761Y-74763381D01*
X118530523Y-74763381D01*
X118387666Y-74811000D01*
X118340047Y-74858619D01*
X117482904Y-75096714D02*
X117482904Y-75763381D01*
X117721000Y-74715762D02*
X117959095Y-75430048D01*
X117340047Y-75430048D01*
X116768619Y-74763381D02*
X116673380Y-74763381D01*
X116578142Y-74811000D01*
X116530523Y-74858619D01*
X116482904Y-74953857D01*
X116435285Y-75144333D01*
X116435285Y-75382429D01*
X116482904Y-75572905D01*
X116530523Y-75668143D01*
X116578142Y-75715762D01*
X116673380Y-75763381D01*
X116768619Y-75763381D01*
X116863857Y-75715762D01*
X116911476Y-75668143D01*
X116959095Y-75572905D01*
X117006714Y-75382429D01*
X117006714Y-75144333D01*
X116959095Y-74953857D01*
X116911476Y-74858619D01*
X116863857Y-74811000D01*
X116768619Y-74763381D01*
X116054333Y-74858619D02*
X116006714Y-74811000D01*
X115911476Y-74763381D01*
X115673380Y-74763381D01*
X115578142Y-74811000D01*
X115530523Y-74858619D01*
X115482904Y-74953857D01*
X115482904Y-75049095D01*
X115530523Y-75191952D01*
X116101952Y-75763381D01*
X115482904Y-75763381D01*
X105544881Y-73556953D02*
X105068690Y-73223619D01*
X105544881Y-72985524D02*
X104544881Y-72985524D01*
X104544881Y-73366477D01*
X104592500Y-73461715D01*
X104640119Y-73509334D01*
X104735357Y-73556953D01*
X104878214Y-73556953D01*
X104973452Y-73509334D01*
X105021071Y-73461715D01*
X105068690Y-73366477D01*
X105068690Y-72985524D01*
X104544881Y-73890286D02*
X104544881Y-74509334D01*
X104925833Y-74176000D01*
X104925833Y-74318858D01*
X104973452Y-74414096D01*
X105021071Y-74461715D01*
X105116310Y-74509334D01*
X105354405Y-74509334D01*
X105449643Y-74461715D01*
X105497262Y-74414096D01*
X105544881Y-74318858D01*
X105544881Y-74033143D01*
X105497262Y-73937905D01*
X105449643Y-73890286D01*
X104544881Y-75128381D02*
X104544881Y-75223620D01*
X104592500Y-75318858D01*
X104640119Y-75366477D01*
X104735357Y-75414096D01*
X104925833Y-75461715D01*
X105163929Y-75461715D01*
X105354405Y-75414096D01*
X105449643Y-75366477D01*
X105497262Y-75318858D01*
X105544881Y-75223620D01*
X105544881Y-75128381D01*
X105497262Y-75033143D01*
X105449643Y-74985524D01*
X105354405Y-74937905D01*
X105163929Y-74890286D01*
X104925833Y-74890286D01*
X104735357Y-74937905D01*
X104640119Y-74985524D01*
X104592500Y-75033143D01*
X104544881Y-75128381D01*
X104640119Y-75842667D02*
X104592500Y-75890286D01*
X104544881Y-75985524D01*
X104544881Y-76223620D01*
X104592500Y-76318858D01*
X104640119Y-76366477D01*
X104735357Y-76414096D01*
X104830595Y-76414096D01*
X104973452Y-76366477D01*
X105544881Y-75795048D01*
X105544881Y-76414096D01*
%LPC*%
D13*
X101092000Y-73977500D03*
X101092000Y-75882500D03*
X120777000Y-74993500D03*
X120777000Y-73088500D03*
D14*
X116268500Y-73406000D03*
X118173500Y-73406000D03*
D15*
X116840000Y-58420000D03*
X114300000Y-58420000D03*
X119380000Y-58420000D03*
D13*
X103251000Y-73977500D03*
X103251000Y-75882500D03*
D16*
X104140000Y-54610000D03*
X129540000Y-54610000D03*
D17*
X134620000Y-87439500D03*
D18*
X134620000Y-82359500D03*
D17*
X134620000Y-77025500D03*
D18*
X134620000Y-71945500D03*
D19*
X128714500Y-83566000D03*
D20*
X128714500Y-81026000D03*
X128714500Y-78486000D03*
D21*
X120229000Y-89027000D03*
X117729000Y-89027000D03*
X115229000Y-89027000D03*
D22*
X122829000Y-85727000D03*
X112629000Y-85727000D03*
D21*
X106132000Y-89281000D03*
X103632000Y-89281000D03*
X101132000Y-89281000D03*
D22*
X108732000Y-85981000D03*
X98532000Y-85981000D03*
D23*
X119517686Y-67257186D03*
X123054110Y-70793610D03*
M02*
