G04 #@! TF.FileFunction,Copper,L1,Top,Signal*
%FSLAX46Y46*%
G04 Gerber Fmt 4.6, Leading zero omitted, Abs format (unit mm)*
G04 Created by KiCad (PCBNEW 0.201503020946+5465~21~ubuntu14.04.1-product) date Wed 04 Mar 2015 21:34:39 CET*
%MOMM*%
G01*
G04 APERTURE LIST*
%ADD10C,0.100000*%
%ADD11R,0.700000X0.600000*%
%ADD12O,1.501140X2.499360*%
%ADD13R,1.397000X0.889000*%
%ADD14R,0.889000X1.397000*%
%ADD15R,1.143000X0.508000*%
%ADD16R,2.032000X2.032000*%
%ADD17O,2.032000X2.032000*%
%ADD18R,2.032000X1.727200*%
%ADD19O,2.032000X1.727200*%
%ADD20C,1.998980*%
%ADD21C,2.000000*%
%ADD22C,1.143000*%
%ADD23C,0.889000*%
%ADD24C,0.609600*%
%ADD25C,0.254000*%
G04 APERTURE END LIST*
D10*
D11*
X110744000Y-64451000D03*
X110744000Y-65851000D03*
D12*
X116840000Y-58420000D03*
X114300000Y-58420000D03*
X119380000Y-58420000D03*
D13*
X113538000Y-64579500D03*
X113538000Y-66484500D03*
X109982000Y-77660500D03*
X109982000Y-79565500D03*
D14*
X101409500Y-79502000D03*
X99504500Y-79502000D03*
X99504500Y-81788000D03*
X101409500Y-81788000D03*
D13*
X112268000Y-77660500D03*
X112268000Y-79565500D03*
X124206000Y-81343500D03*
X124206000Y-79438500D03*
D14*
X111823500Y-81407000D03*
X109918500Y-81407000D03*
D15*
X105156000Y-72136000D03*
X105156000Y-73406000D03*
X105156000Y-74676000D03*
X105156000Y-75946000D03*
X98806000Y-75946000D03*
X98806000Y-74676000D03*
X98806000Y-73406000D03*
X98806000Y-72136000D03*
X120777000Y-77597000D03*
X120777000Y-78867000D03*
X120777000Y-80137000D03*
X120777000Y-81407000D03*
X114427000Y-81407000D03*
X114427000Y-80137000D03*
X114427000Y-78867000D03*
X114427000Y-77597000D03*
D16*
X134620000Y-87439500D03*
D17*
X134620000Y-82359500D03*
D16*
X134620000Y-77025500D03*
D17*
X134620000Y-71945500D03*
D18*
X128714500Y-83566000D03*
D19*
X128714500Y-81026000D03*
X128714500Y-78486000D03*
D20*
X119517686Y-67257186D03*
X123054110Y-70793610D03*
D21*
X120229000Y-89027000D03*
X117729000Y-89027000D03*
X115229000Y-89027000D03*
X106132000Y-89027000D03*
X103632000Y-89027000D03*
X101132000Y-89027000D03*
D22*
X108331000Y-72136000D03*
X114681000Y-75184000D03*
X117602000Y-79502000D03*
X111125000Y-83312000D03*
X99060000Y-77343000D03*
X103505000Y-81788000D03*
X123317000Y-74930000D03*
D23*
X105029000Y-77470000D03*
X107061000Y-81280000D03*
X103251000Y-78359000D03*
D24*
X110109000Y-77533500D02*
X109982000Y-77660500D01*
X112585500Y-77978000D02*
X112268000Y-77660500D01*
X108331000Y-72136000D02*
X105156000Y-72136000D01*
X109982000Y-77660500D02*
X112268000Y-77660500D01*
X114363500Y-77660500D02*
X114427000Y-77597000D01*
X109982000Y-77660500D02*
X114363500Y-77660500D01*
X114427000Y-75438000D02*
X114681000Y-75184000D01*
X114427000Y-77597000D02*
X114427000Y-75438000D01*
X120777000Y-78867000D02*
X118237000Y-78867000D01*
X116967000Y-80137000D02*
X117602000Y-79502000D01*
X114427000Y-80137000D02*
X116967000Y-80137000D01*
X116967000Y-78867000D02*
X114427000Y-78867000D01*
X116967000Y-78867000D02*
X117602000Y-79502000D01*
X118237000Y-80137000D02*
X117602000Y-79502000D01*
X120777000Y-80137000D02*
X118237000Y-80137000D01*
X118237000Y-78867000D02*
X117602000Y-79502000D01*
X109918500Y-81407000D02*
X109918500Y-82105500D01*
X109918500Y-82105500D02*
X111125000Y-83312000D01*
X120777000Y-78867000D02*
X123634500Y-78867000D01*
X123634500Y-78867000D02*
X124206000Y-79438500D01*
X98806000Y-75946000D02*
X98806000Y-77089000D01*
X98806000Y-77089000D02*
X99060000Y-77343000D01*
X101409500Y-81788000D02*
X103505000Y-81788000D01*
X109918500Y-81407000D02*
X109918500Y-81978500D01*
X120751600Y-78841600D02*
X120777000Y-78867000D01*
X124460000Y-77597000D02*
X120777000Y-77597000D01*
X125603000Y-77597000D02*
X124460000Y-77597000D01*
X126238000Y-78232000D02*
X125603000Y-77597000D01*
X126238000Y-79248000D02*
X126238000Y-78232000D01*
X128016000Y-81026000D02*
X126238000Y-79248000D01*
X128714500Y-81026000D02*
X128016000Y-81026000D01*
X123317000Y-74930000D02*
X123190000Y-75057000D01*
X123190000Y-75057000D02*
X123190000Y-76327000D01*
X123190000Y-76327000D02*
X124460000Y-77597000D01*
D25*
X113538000Y-64579500D02*
X113538000Y-62357000D01*
X112649000Y-61468000D02*
X112649000Y-60071000D01*
X113538000Y-62357000D02*
X112649000Y-61468000D01*
X110744000Y-61976000D02*
X112649000Y-60071000D01*
X112649000Y-60071000D02*
X114300000Y-58420000D01*
X110744000Y-64451000D02*
X110744000Y-61976000D01*
X110744000Y-65851000D02*
X110744000Y-66040000D01*
X110744000Y-66167000D02*
X108712000Y-68199000D01*
X108712000Y-68199000D02*
X100330000Y-68199000D01*
X100330000Y-68199000D02*
X98806000Y-69723000D01*
X98806000Y-69723000D02*
X98806000Y-72136000D01*
X110744000Y-65851000D02*
X110744000Y-66167000D01*
D24*
X132588000Y-87439500D02*
X128714500Y-83566000D01*
X134620000Y-87439500D02*
X132588000Y-87439500D01*
X134620000Y-77025500D02*
X134620000Y-75565000D01*
X116840000Y-56769000D02*
X116840000Y-58420000D01*
X117602000Y-56007000D02*
X116840000Y-56769000D01*
X121666000Y-56007000D02*
X117602000Y-56007000D01*
X123190000Y-57531000D02*
X121666000Y-56007000D01*
X123190000Y-66040000D02*
X123190000Y-57531000D01*
X125603000Y-68453000D02*
X124637800Y-67487800D01*
X124079000Y-66929000D02*
X123190000Y-66040000D01*
X127508000Y-68453000D02*
X125603000Y-68453000D01*
X134620000Y-75565000D02*
X127508000Y-68453000D01*
X133159500Y-78486000D02*
X134620000Y-77025500D01*
X128714500Y-78486000D02*
X133159500Y-78486000D01*
X124399040Y-67249040D02*
X123949460Y-67249040D01*
X124637800Y-67487800D02*
X124399040Y-67249040D01*
X124399040Y-67249040D02*
X124079000Y-66929000D01*
X105687170Y-79502000D02*
X102463600Y-79502000D01*
X113497670Y-71691500D02*
X105687170Y-79502000D01*
X119507000Y-71691500D02*
X113497670Y-71691500D01*
X102463600Y-79502000D02*
X101409500Y-79502000D01*
X123949460Y-67249040D02*
X119507000Y-71691500D01*
X119380000Y-67119500D02*
X119517686Y-67257186D01*
X119380000Y-58420000D02*
X119380000Y-67119500D01*
X116638814Y-67257186D02*
X109220000Y-74676000D01*
X109220000Y-74676000D02*
X105156000Y-74676000D01*
X119517686Y-67257186D02*
X116638814Y-67257186D01*
D25*
X109220000Y-73406000D02*
X113538000Y-69088000D01*
X113538000Y-69088000D02*
X113538000Y-66484500D01*
X105156000Y-73406000D02*
X109220000Y-73406000D01*
X114300000Y-81534000D02*
X114427000Y-81407000D01*
X112458500Y-79756000D02*
X112268000Y-79565500D01*
X111823500Y-81407000D02*
X114427000Y-81407000D01*
X112458500Y-79756000D02*
X112268000Y-79565500D01*
X111823500Y-81407000D02*
X112458500Y-79756000D01*
X120777000Y-81407000D02*
X124142500Y-81407000D01*
X124142500Y-81407000D02*
X124206000Y-81343500D01*
X120840500Y-81343500D02*
X120777000Y-81407000D01*
X105029000Y-77470000D02*
X105156000Y-77343000D01*
X105156000Y-77343000D02*
X105156000Y-75946000D01*
X108775500Y-79565500D02*
X107061000Y-81280000D01*
X109982000Y-79565500D02*
X108775500Y-79565500D01*
X98806000Y-74676000D02*
X97917000Y-74676000D01*
X97790000Y-78359000D02*
X103251000Y-78359000D01*
X97536000Y-78105000D02*
X97790000Y-78359000D01*
X97536000Y-75057000D02*
X97536000Y-78105000D01*
X97917000Y-74676000D02*
X97536000Y-75057000D01*
X98806000Y-74676000D02*
X98425000Y-74676000D01*
X99631500Y-81661000D02*
X99504500Y-81788000D01*
X98171000Y-81788000D02*
X96901000Y-80518000D01*
X96901000Y-80518000D02*
X96901000Y-74168000D01*
X96901000Y-74168000D02*
X97663000Y-73406000D01*
X97663000Y-73406000D02*
X98806000Y-73406000D01*
X99504500Y-81788000D02*
X98171000Y-81788000D01*
X99504500Y-79502000D02*
X99504500Y-81788000D01*
M02*
