M48
;DRILL file {kicad 0.201503020946+5465~21~ubuntu14.04.1-product} date Wed 04 Mar 2015 22:08:17 CET
;FORMAT={-:-/ absolute / inch / decimal}
FMAT,2
INCH,TZ
T1C0.025
T2C0.030
T3C0.039
T4C0.039
T5C0.040
T6C0.079
T7C0.091
%
G90
G05
M72
T1
X4.065Y-3.085
X4.135Y-3.05
X4.215Y-3.2
T2
X3.9Y-3.045
X4.075Y-3.22
X4.265Y-2.84
X4.375Y-3.28
X4.515Y-2.96
X4.63Y-3.13
X4.855Y-2.95
T3
X3.9816Y-3.505
X4.08Y-3.505
X4.1784Y-3.505
X4.5366Y-3.505
X4.635Y-3.505
X4.7334Y-3.505
T4
X4.5Y-2.3
X4.6Y-2.3
X4.7Y-2.3
X4.7054Y-2.6479
X4.8446Y-2.7872
T5
X5.0675Y-3.09
X5.0675Y-3.19
X5.0675Y-3.29
X5.3Y-2.8325
X5.3Y-3.0325
X5.3Y-3.2425
X5.3Y-3.4425
T7
X4.1Y-2.15
X5.1Y-2.15
T6
X3.8792Y-3.3711G85X3.8792Y-3.379
G05
X4.2808Y-3.3711G85X4.2808Y-3.379
G05
X4.4342Y-3.3711G85X4.4342Y-3.379
G05
X4.8358Y-3.3711G85X4.8358Y-3.379
G05
T0
M30
