M48
;DRILL file {kicad 0.201503020946+5465~21~ubuntu14.04.1-product} date Mon 02 Mar 2015 21:19:15 CET
;FORMAT={2:4/ absolute / inch / suppress leading zeros}
FMAT,2
INCH,TZ
T1C0.025
T2C0.030
T3C0.039
T4C0.039
T5C0.040
T6C0.079
T7C0.091
%
G90
G05
M72
T1
X40650Y-30850
X41350Y-30500
X42150Y-32000
T2
X39000Y-30450
X40750Y-32250
X42650Y-28400
X43750Y-32800
X45150Y-29600
X46300Y-31300
X48550Y-29500
T3
X39816Y-35150
X40800Y-35150
X41784Y-35150
X45366Y-35050
X46350Y-35050
X47334Y-35050
T4
X45000Y-23000
X46000Y-23000
X47000Y-23000
X47054Y-26479
X48447Y-27872
T5
X50675Y-30900
X50675Y-31900
X50675Y-32900
X53000Y-28325
X53000Y-30325
X53000Y-32425
X53000Y-34425
T7
X41000Y-21500
X51000Y-21500
T6
X38792Y-33811G85X38792Y-33890
G05
X42808Y-33811G85X42808Y-33890
G05
X44342Y-33711G85X44342Y-33790
G05
X48358Y-33711G85X48358Y-33790
G05
T0
M30
