G04 #@! TF.FileFunction,Copper,L2,Bot,Signal*
%FSLAX46Y46*%
G04 Gerber Fmt 4.6, Leading zero omitted, Abs format (unit mm)*
G04 Created by KiCad (PCBNEW 0.201503020946+5465~21~ubuntu14.04.1-product) date Tue 03 Mar 2015 21:19:53 CET*
%MOMM*%
G01*
G04 APERTURE LIST*
%ADD10C,0.100000*%
%ADD11R,1.397000X0.889000*%
%ADD12R,0.889000X1.397000*%
%ADD13O,1.501140X2.499360*%
%ADD14R,2.032000X2.032000*%
%ADD15O,2.032000X2.032000*%
%ADD16R,2.032000X1.727200*%
%ADD17O,2.032000X1.727200*%
%ADD18C,2.000000*%
%ADD19C,1.998980*%
%ADD20C,1.143000*%
%ADD21C,0.889000*%
%ADD22C,0.609600*%
%ADD23C,0.254000*%
G04 APERTURE END LIST*
D10*
D11*
X101092000Y-73977500D03*
X101092000Y-75882500D03*
X120777000Y-74993500D03*
X120777000Y-73088500D03*
D12*
X116268500Y-73406000D03*
X118173500Y-73406000D03*
D13*
X116840000Y-58420000D03*
X114300000Y-58420000D03*
X119380000Y-58420000D03*
D11*
X103251000Y-73977500D03*
X103251000Y-75882500D03*
D14*
X134620000Y-87439500D03*
D15*
X134620000Y-82359500D03*
D14*
X134620000Y-77025500D03*
D15*
X134620000Y-71945500D03*
D16*
X128714500Y-83566000D03*
D17*
X128714500Y-81026000D03*
X128714500Y-78486000D03*
D18*
X120229000Y-89027000D03*
X117729000Y-89027000D03*
X115229000Y-89027000D03*
X106132000Y-89027000D03*
X103632000Y-89027000D03*
X101132000Y-89027000D03*
D19*
X119517686Y-67257186D03*
X123054110Y-70793610D03*
D20*
X108331000Y-72136000D03*
X114681000Y-75184000D03*
X117602000Y-79502000D03*
X111125000Y-83312000D03*
X99060000Y-77343000D03*
X103505000Y-81788000D03*
X123317000Y-74930000D03*
D21*
X105029000Y-77470000D03*
X107061000Y-81280000D03*
X103251000Y-78359000D03*
D22*
X106426000Y-74041000D02*
X108331000Y-72136000D01*
X103314500Y-74041000D02*
X106426000Y-74041000D01*
X103251000Y-73977500D02*
X103314500Y-74041000D01*
X101092000Y-73977500D02*
X103251000Y-73977500D01*
X109601000Y-73406000D02*
X108331000Y-72136000D01*
X114808000Y-73406000D02*
X109601000Y-73406000D01*
X116268500Y-73406000D02*
X114808000Y-73406000D01*
X114681000Y-75184000D02*
X114808000Y-75057000D01*
X114808000Y-75057000D02*
X114808000Y-73406000D01*
X123253500Y-74993500D02*
X123317000Y-74930000D01*
X120777000Y-74993500D02*
X123253500Y-74993500D01*
D23*
X112268000Y-89027000D02*
X110617000Y-87376000D01*
X110617000Y-87376000D02*
X110617000Y-84709000D01*
X107061000Y-81153000D02*
X105029000Y-79121000D01*
X110617000Y-84709000D02*
X107061000Y-81153000D01*
X105029000Y-79121000D02*
X105029000Y-77470000D01*
X115229000Y-89027000D02*
X112268000Y-89027000D01*
X107061000Y-81280000D02*
X107061000Y-81153000D01*
X107124500Y-81216500D02*
X107061000Y-81280000D01*
X107061000Y-81280000D02*
X107124500Y-81216500D01*
X103251000Y-78359000D02*
X103251000Y-78486000D01*
X103251000Y-78486000D02*
X105156000Y-80137000D01*
X105156000Y-80137000D02*
X105156000Y-87757000D01*
X105156000Y-87757000D02*
X103632000Y-89027000D01*
X103251000Y-75882500D02*
X103251000Y-78359000D01*
G36*
X136983000Y-92152000D02*
X136283440Y-92152000D01*
X136283440Y-88455500D01*
X136283440Y-86423500D01*
X136283440Y-78041500D01*
X136283440Y-76009500D01*
X136236463Y-75767377D01*
X136225983Y-75751423D01*
X136225983Y-72328446D01*
X136225983Y-71562554D01*
X135957188Y-70977121D01*
X135484818Y-70539115D01*
X135002944Y-70339525D01*
X134747000Y-70458664D01*
X134747000Y-71818500D01*
X136107367Y-71818500D01*
X136225983Y-71562554D01*
X136225983Y-72328446D01*
X136107367Y-72072500D01*
X134747000Y-72072500D01*
X134747000Y-73432336D01*
X135002944Y-73551475D01*
X135484818Y-73351885D01*
X135957188Y-72913879D01*
X136225983Y-72328446D01*
X136225983Y-75751423D01*
X136096673Y-75554573D01*
X135885640Y-75412123D01*
X135636000Y-75362060D01*
X134493000Y-75362060D01*
X134493000Y-73432336D01*
X134493000Y-72072500D01*
X134493000Y-71818500D01*
X134493000Y-70458664D01*
X134237056Y-70339525D01*
X133755182Y-70539115D01*
X133282812Y-70977121D01*
X133014017Y-71562554D01*
X133132633Y-71818500D01*
X134493000Y-71818500D01*
X134493000Y-72072500D01*
X133132633Y-72072500D01*
X133014017Y-72328446D01*
X133282812Y-72913879D01*
X133755182Y-73351885D01*
X134237056Y-73551475D01*
X134493000Y-73432336D01*
X134493000Y-75362060D01*
X133604000Y-75362060D01*
X133361877Y-75409037D01*
X133149073Y-75548827D01*
X133006623Y-75759860D01*
X132956560Y-76009500D01*
X132956560Y-78041500D01*
X133003537Y-78283623D01*
X133143327Y-78496427D01*
X133354360Y-78638877D01*
X133604000Y-78688940D01*
X135636000Y-78688940D01*
X135878123Y-78641963D01*
X136090927Y-78502173D01*
X136233377Y-78291140D01*
X136283440Y-78041500D01*
X136283440Y-86423500D01*
X136236463Y-86181377D01*
X136225983Y-86165423D01*
X136225983Y-82742446D01*
X136225983Y-81976554D01*
X135957188Y-81391121D01*
X135484818Y-80953115D01*
X135002944Y-80753525D01*
X134747000Y-80872664D01*
X134747000Y-82232500D01*
X136107367Y-82232500D01*
X136225983Y-81976554D01*
X136225983Y-82742446D01*
X136107367Y-82486500D01*
X134747000Y-82486500D01*
X134747000Y-83846336D01*
X135002944Y-83965475D01*
X135484818Y-83765885D01*
X135957188Y-83327879D01*
X136225983Y-82742446D01*
X136225983Y-86165423D01*
X136096673Y-85968573D01*
X135885640Y-85826123D01*
X135636000Y-85776060D01*
X134493000Y-85776060D01*
X134493000Y-83846336D01*
X134493000Y-82486500D01*
X134493000Y-82232500D01*
X134493000Y-80872664D01*
X134237056Y-80753525D01*
X133755182Y-80953115D01*
X133282812Y-81391121D01*
X133014017Y-81976554D01*
X133132633Y-82232500D01*
X134493000Y-82232500D01*
X134493000Y-82486500D01*
X133132633Y-82486500D01*
X133014017Y-82742446D01*
X133282812Y-83327879D01*
X133755182Y-83765885D01*
X134237056Y-83965475D01*
X134493000Y-83846336D01*
X134493000Y-85776060D01*
X133604000Y-85776060D01*
X133361877Y-85823037D01*
X133149073Y-85962827D01*
X133006623Y-86173860D01*
X132956560Y-86423500D01*
X132956560Y-88455500D01*
X133003537Y-88697623D01*
X133143327Y-88910427D01*
X133354360Y-89052877D01*
X133604000Y-89102940D01*
X135636000Y-89102940D01*
X135878123Y-89055963D01*
X136090927Y-88916173D01*
X136233377Y-88705140D01*
X136283440Y-88455500D01*
X136283440Y-92152000D01*
X131331010Y-92152000D01*
X131331010Y-54255370D01*
X131058967Y-53596975D01*
X130555675Y-53092804D01*
X129897755Y-52819611D01*
X129185370Y-52818990D01*
X128526975Y-53091033D01*
X128022804Y-53594325D01*
X127749611Y-54252245D01*
X127748990Y-54964630D01*
X128021033Y-55623025D01*
X128524325Y-56127196D01*
X129182245Y-56400389D01*
X129894630Y-56401010D01*
X130553025Y-56128967D01*
X131057196Y-55625675D01*
X131330389Y-54967755D01*
X131331010Y-54255370D01*
X131331010Y-92152000D01*
X130397845Y-92152000D01*
X130397845Y-81026000D01*
X130283771Y-80452511D01*
X129958915Y-79966330D01*
X129644134Y-79756000D01*
X129958915Y-79545670D01*
X130283771Y-79059489D01*
X130397845Y-78486000D01*
X130283771Y-77912511D01*
X129958915Y-77426330D01*
X129472734Y-77101474D01*
X128899245Y-76987400D01*
X128529755Y-76987400D01*
X127956266Y-77101474D01*
X127470085Y-77426330D01*
X127145229Y-77912511D01*
X127031155Y-78486000D01*
X127145229Y-79059489D01*
X127470085Y-79545670D01*
X127784865Y-79756000D01*
X127470085Y-79966330D01*
X127145229Y-80452511D01*
X127031155Y-81026000D01*
X127145229Y-81599489D01*
X127470085Y-82085670D01*
X127485867Y-82096215D01*
X127456377Y-82101937D01*
X127243573Y-82241727D01*
X127101123Y-82452760D01*
X127051060Y-82702400D01*
X127051060Y-84429600D01*
X127098037Y-84671723D01*
X127237827Y-84884527D01*
X127448860Y-85026977D01*
X127698500Y-85077040D01*
X129730500Y-85077040D01*
X129972623Y-85030063D01*
X130185427Y-84890273D01*
X130327877Y-84679240D01*
X130377940Y-84429600D01*
X130377940Y-82702400D01*
X130330963Y-82460277D01*
X130191173Y-82247473D01*
X129980140Y-82105023D01*
X129941537Y-82097281D01*
X129958915Y-82085670D01*
X130283771Y-81599489D01*
X130397845Y-81026000D01*
X130397845Y-92152000D01*
X124675451Y-92152000D01*
X124675451Y-71178988D01*
X124675451Y-70408232D01*
X124404556Y-69817107D01*
X123928068Y-69374646D01*
X123439488Y-69172269D01*
X123181110Y-69291206D01*
X123181110Y-70666610D01*
X124556514Y-70666610D01*
X124675451Y-70408232D01*
X124675451Y-71178988D01*
X124556514Y-70920610D01*
X123181110Y-70920610D01*
X123181110Y-72296014D01*
X123439488Y-72414951D01*
X124030613Y-72144056D01*
X124473074Y-71667568D01*
X124675451Y-71178988D01*
X124675451Y-92152000D01*
X124523709Y-92152000D01*
X124523709Y-74691065D01*
X124340418Y-74247465D01*
X124001320Y-73907775D01*
X123558041Y-73723710D01*
X123078065Y-73723291D01*
X122927110Y-73785664D01*
X122927110Y-72296014D01*
X122927110Y-70920610D01*
X122927110Y-70666610D01*
X122927110Y-69291206D01*
X122668732Y-69172269D01*
X122077607Y-69443164D01*
X121635146Y-69919652D01*
X121432769Y-70408232D01*
X121551706Y-70666610D01*
X122927110Y-70666610D01*
X122927110Y-70920610D01*
X121551706Y-70920610D01*
X121432769Y-71178988D01*
X121703664Y-71770113D01*
X122180152Y-72212574D01*
X122668732Y-72414951D01*
X122927110Y-72296014D01*
X122927110Y-73785664D01*
X122634465Y-73906582D01*
X122487090Y-74053700D01*
X121876362Y-74053700D01*
X121862310Y-74044215D01*
X122013827Y-73892698D01*
X122110500Y-73659309D01*
X122110500Y-73374250D01*
X122110500Y-72802750D01*
X122110500Y-72517691D01*
X122013827Y-72284302D01*
X121835199Y-72105673D01*
X121601810Y-72009000D01*
X121349191Y-72009000D01*
X121152460Y-72009000D01*
X121152460Y-66933492D01*
X120904148Y-66332531D01*
X120765570Y-66193711D01*
X120765570Y-58956033D01*
X120765570Y-57883967D01*
X120660100Y-57353732D01*
X120359746Y-56904221D01*
X119910235Y-56603867D01*
X119380000Y-56498397D01*
X118849765Y-56603867D01*
X118400254Y-56904221D01*
X118110000Y-57338616D01*
X117819746Y-56904221D01*
X117370235Y-56603867D01*
X116840000Y-56498397D01*
X116309765Y-56603867D01*
X115860254Y-56904221D01*
X115570000Y-57338616D01*
X115279746Y-56904221D01*
X114830235Y-56603867D01*
X114300000Y-56498397D01*
X113769765Y-56603867D01*
X113320254Y-56904221D01*
X113019900Y-57353732D01*
X112914430Y-57883967D01*
X112914430Y-58956033D01*
X113019900Y-59486268D01*
X113320254Y-59935779D01*
X113769765Y-60236133D01*
X114300000Y-60341603D01*
X114830235Y-60236133D01*
X115279746Y-59935779D01*
X115570000Y-59501383D01*
X115860254Y-59935779D01*
X116309765Y-60236133D01*
X116840000Y-60341603D01*
X117370235Y-60236133D01*
X117819746Y-59935779D01*
X118110000Y-59501383D01*
X118400254Y-59935779D01*
X118849765Y-60236133D01*
X119380000Y-60341603D01*
X119910235Y-60236133D01*
X120359746Y-59935779D01*
X120660100Y-59486268D01*
X120765570Y-58956033D01*
X120765570Y-66193711D01*
X120444759Y-65872340D01*
X119844233Y-65622980D01*
X119193992Y-65622412D01*
X118593031Y-65870724D01*
X118132840Y-66330113D01*
X117883480Y-66930639D01*
X117882912Y-67580880D01*
X118131224Y-68181841D01*
X118590613Y-68642032D01*
X119191139Y-68891392D01*
X119841380Y-68891960D01*
X120442341Y-68643648D01*
X120902532Y-68184259D01*
X121151892Y-67583733D01*
X121152460Y-66933492D01*
X121152460Y-72009000D01*
X121062750Y-72009000D01*
X120904000Y-72167750D01*
X120904000Y-72961500D01*
X121951750Y-72961500D01*
X122110500Y-72802750D01*
X122110500Y-73374250D01*
X121951750Y-73215500D01*
X120904000Y-73215500D01*
X120904000Y-73235500D01*
X120650000Y-73235500D01*
X120650000Y-73215500D01*
X120650000Y-72961500D01*
X120650000Y-72167750D01*
X120491250Y-72009000D01*
X120204809Y-72009000D01*
X119952190Y-72009000D01*
X119718801Y-72105673D01*
X119540173Y-72284302D01*
X119443500Y-72517691D01*
X119443500Y-72802750D01*
X119602250Y-72961500D01*
X120650000Y-72961500D01*
X120650000Y-73215500D01*
X119602250Y-73215500D01*
X119443500Y-73374250D01*
X119443500Y-73659309D01*
X119540173Y-73892698D01*
X119691306Y-74043832D01*
X119623573Y-74088327D01*
X119481123Y-74299360D01*
X119431060Y-74549000D01*
X119431060Y-75438000D01*
X119478037Y-75680123D01*
X119617827Y-75892927D01*
X119828860Y-76035377D01*
X120078500Y-76085440D01*
X121475500Y-76085440D01*
X121717623Y-76038463D01*
X121877713Y-75933300D01*
X122613787Y-75933300D01*
X122632680Y-75952225D01*
X123075959Y-76136290D01*
X123555935Y-76136709D01*
X123999535Y-75953418D01*
X124339225Y-75614320D01*
X124523290Y-75171041D01*
X124523709Y-74691065D01*
X124523709Y-92152000D01*
X124464000Y-92152000D01*
X124464000Y-85860991D01*
X124464000Y-85593009D01*
X124339543Y-84967322D01*
X123985120Y-84436889D01*
X123454687Y-84082466D01*
X122829000Y-83958009D01*
X122203313Y-84082466D01*
X121672880Y-84436889D01*
X121318457Y-84967322D01*
X121194000Y-85593009D01*
X121194000Y-85860991D01*
X121318457Y-86486678D01*
X121672880Y-87017111D01*
X122203313Y-87371534D01*
X122829000Y-87495991D01*
X123454687Y-87371534D01*
X123985120Y-87017111D01*
X124339543Y-86486678D01*
X124464000Y-85860991D01*
X124464000Y-92152000D01*
X121864284Y-92152000D01*
X121864284Y-88703205D01*
X121615894Y-88102057D01*
X121156363Y-87641722D01*
X120555648Y-87392284D01*
X119905205Y-87391716D01*
X119304057Y-87640106D01*
X119253000Y-87691073D01*
X119253000Y-74230810D01*
X119253000Y-73978191D01*
X119253000Y-73691750D01*
X119253000Y-73120250D01*
X119253000Y-72833809D01*
X119253000Y-72581190D01*
X119156327Y-72347801D01*
X118977698Y-72169173D01*
X118744309Y-72072500D01*
X118459250Y-72072500D01*
X118300500Y-72231250D01*
X118300500Y-73279000D01*
X119094250Y-73279000D01*
X119253000Y-73120250D01*
X119253000Y-73691750D01*
X119094250Y-73533000D01*
X118300500Y-73533000D01*
X118300500Y-74580750D01*
X118459250Y-74739500D01*
X118744309Y-74739500D01*
X118977698Y-74642827D01*
X119156327Y-74464199D01*
X119253000Y-74230810D01*
X119253000Y-87691073D01*
X118887248Y-88056186D01*
X118881532Y-88054073D01*
X118701927Y-88233678D01*
X118701927Y-87874468D01*
X118603264Y-87607613D01*
X118046500Y-87400767D01*
X118046500Y-74580750D01*
X118046500Y-73533000D01*
X118026500Y-73533000D01*
X118026500Y-73279000D01*
X118046500Y-73279000D01*
X118046500Y-72231250D01*
X117887750Y-72072500D01*
X117602691Y-72072500D01*
X117369302Y-72169173D01*
X117218167Y-72320306D01*
X117173673Y-72252573D01*
X116962640Y-72110123D01*
X116713000Y-72060060D01*
X115824000Y-72060060D01*
X115581877Y-72107037D01*
X115369073Y-72246827D01*
X115226623Y-72457860D01*
X115224950Y-72466200D01*
X114808000Y-72466200D01*
X109990278Y-72466200D01*
X109537607Y-72013529D01*
X109537709Y-71897065D01*
X109354418Y-71453465D01*
X109015320Y-71113775D01*
X108572041Y-70929710D01*
X108092065Y-70929291D01*
X107648465Y-71112582D01*
X107308775Y-71451680D01*
X107124710Y-71894959D01*
X107124606Y-72013315D01*
X106036722Y-73101200D01*
X105931010Y-73101200D01*
X105931010Y-54255370D01*
X105658967Y-53596975D01*
X105155675Y-53092804D01*
X104497755Y-52819611D01*
X103785370Y-52818990D01*
X103126975Y-53091033D01*
X102622804Y-53594325D01*
X102349611Y-54252245D01*
X102348990Y-54964630D01*
X102621033Y-55623025D01*
X103124325Y-56127196D01*
X103782245Y-56400389D01*
X104494630Y-56401010D01*
X105153025Y-56128967D01*
X105657196Y-55625675D01*
X105930389Y-54967755D01*
X105931010Y-54255370D01*
X105931010Y-73101200D01*
X104425365Y-73101200D01*
X104410173Y-73078073D01*
X104199140Y-72935623D01*
X103949500Y-72885560D01*
X102552500Y-72885560D01*
X102310377Y-72932537D01*
X102171103Y-73024025D01*
X102040140Y-72935623D01*
X101790500Y-72885560D01*
X100393500Y-72885560D01*
X100151377Y-72932537D01*
X99938573Y-73072327D01*
X99796123Y-73283360D01*
X99746060Y-73533000D01*
X99746060Y-74422000D01*
X99793037Y-74664123D01*
X99932827Y-74876927D01*
X100006689Y-74926784D01*
X99855173Y-75078302D01*
X99758500Y-75311691D01*
X99758500Y-75596750D01*
X99917250Y-75755500D01*
X100965000Y-75755500D01*
X100965000Y-75735500D01*
X101219000Y-75735500D01*
X101219000Y-75755500D01*
X101239000Y-75755500D01*
X101239000Y-76009500D01*
X101219000Y-76009500D01*
X101219000Y-76803250D01*
X101377750Y-76962000D01*
X101664191Y-76962000D01*
X101916810Y-76962000D01*
X102150199Y-76865327D01*
X102176466Y-76839059D01*
X102302860Y-76924377D01*
X102489000Y-76961705D01*
X102489000Y-77594358D01*
X102336378Y-77746714D01*
X102171687Y-78143332D01*
X102171313Y-78572784D01*
X102335311Y-78969689D01*
X102638714Y-79273622D01*
X103035332Y-79438313D01*
X103186492Y-79438444D01*
X104394000Y-80484951D01*
X104394000Y-87400098D01*
X104255473Y-87515536D01*
X103958648Y-87392284D01*
X103308205Y-87391716D01*
X102707057Y-87640106D01*
X102381835Y-87964759D01*
X102059363Y-87641722D01*
X101458648Y-87392284D01*
X100965000Y-87391852D01*
X100965000Y-76803250D01*
X100965000Y-76009500D01*
X99917250Y-76009500D01*
X99758500Y-76168250D01*
X99758500Y-76453309D01*
X99855173Y-76686698D01*
X100033801Y-76865327D01*
X100267190Y-76962000D01*
X100519809Y-76962000D01*
X100806250Y-76962000D01*
X100965000Y-76803250D01*
X100965000Y-87391852D01*
X100808205Y-87391716D01*
X100207057Y-87640106D01*
X100167000Y-87680093D01*
X100167000Y-85860991D01*
X100167000Y-85593009D01*
X100042543Y-84967322D01*
X99688120Y-84436889D01*
X99157687Y-84082466D01*
X98532000Y-83958009D01*
X97906313Y-84082466D01*
X97375880Y-84436889D01*
X97021457Y-84967322D01*
X96897000Y-85593009D01*
X96897000Y-85860991D01*
X97021457Y-86486678D01*
X97375880Y-87017111D01*
X97906313Y-87371534D01*
X98532000Y-87495991D01*
X99157687Y-87371534D01*
X99688120Y-87017111D01*
X100042543Y-86486678D01*
X100167000Y-85860991D01*
X100167000Y-87680093D01*
X99746722Y-88099637D01*
X99497284Y-88700352D01*
X99496716Y-89350795D01*
X99745106Y-89951943D01*
X100204637Y-90412278D01*
X100805352Y-90661716D01*
X101455795Y-90662284D01*
X102056943Y-90413894D01*
X102382164Y-90089240D01*
X102704637Y-90412278D01*
X103305352Y-90661716D01*
X103955795Y-90662284D01*
X104556943Y-90413894D01*
X104973751Y-89997813D01*
X104979468Y-89999927D01*
X105952395Y-89027000D01*
X105938252Y-89012857D01*
X106117857Y-88833252D01*
X106132000Y-88847395D01*
X107104927Y-87874468D01*
X107006264Y-87607613D01*
X106396539Y-87381092D01*
X105918000Y-87398799D01*
X105918000Y-81087630D01*
X105981611Y-81151241D01*
X105981313Y-81493784D01*
X106145311Y-81890689D01*
X106448714Y-82194622D01*
X106845332Y-82359313D01*
X107189982Y-82359613D01*
X108802377Y-83972007D01*
X108732000Y-83958009D01*
X108106313Y-84082466D01*
X107575880Y-84436889D01*
X107221457Y-84967322D01*
X107097000Y-85593009D01*
X107097000Y-85860991D01*
X107221457Y-86486678D01*
X107575880Y-87017111D01*
X108106313Y-87371534D01*
X108732000Y-87495991D01*
X109357687Y-87371534D01*
X109855000Y-87039241D01*
X109855000Y-87376000D01*
X109913004Y-87667605D01*
X110078185Y-87914815D01*
X111729185Y-89565816D01*
X111976395Y-89730996D01*
X111976396Y-89730997D01*
X112268000Y-89789000D01*
X113774779Y-89789000D01*
X113842106Y-89951943D01*
X114301637Y-90412278D01*
X114902352Y-90661716D01*
X115552795Y-90662284D01*
X116153943Y-90413894D01*
X116570751Y-89997813D01*
X116576468Y-89999927D01*
X117549395Y-89027000D01*
X116576468Y-88054073D01*
X116570278Y-88056361D01*
X116156363Y-87641722D01*
X115555648Y-87392284D01*
X114905205Y-87391716D01*
X114304057Y-87640106D01*
X113843722Y-88099637D01*
X113775057Y-88265000D01*
X112583630Y-88265000D01*
X111379000Y-87060369D01*
X111379000Y-86876609D01*
X111472880Y-87017111D01*
X112003313Y-87371534D01*
X112629000Y-87495991D01*
X113254687Y-87371534D01*
X113785120Y-87017111D01*
X114139543Y-86486678D01*
X114264000Y-85860991D01*
X114264000Y-85593009D01*
X114139543Y-84967322D01*
X113785120Y-84436889D01*
X113254687Y-84082466D01*
X112629000Y-83958009D01*
X112003313Y-84082466D01*
X111472880Y-84436889D01*
X111358826Y-84607582D01*
X111320996Y-84417395D01*
X111155815Y-84170185D01*
X111155815Y-84170184D01*
X108140609Y-81154979D01*
X108140687Y-81066216D01*
X107976689Y-80669311D01*
X107673286Y-80365378D01*
X107276668Y-80200687D01*
X107186238Y-80200608D01*
X105791000Y-78805370D01*
X105791000Y-78234641D01*
X105943622Y-78082286D01*
X106108313Y-77685668D01*
X106108687Y-77256216D01*
X105944689Y-76859311D01*
X105641286Y-76555378D01*
X105244668Y-76390687D01*
X104815216Y-76390313D01*
X104563375Y-76494371D01*
X104596940Y-76327000D01*
X104596940Y-75438000D01*
X104549963Y-75195877D01*
X104410173Y-74983073D01*
X104406805Y-74980800D01*
X106426000Y-74980800D01*
X106785646Y-74909262D01*
X107090539Y-74705539D01*
X108331000Y-73465078D01*
X108936461Y-74070539D01*
X109241354Y-74274262D01*
X109601000Y-74345800D01*
X113812923Y-74345800D01*
X113658775Y-74499680D01*
X113474710Y-74942959D01*
X113474291Y-75422935D01*
X113657582Y-75866535D01*
X113996680Y-76206225D01*
X114439959Y-76390290D01*
X114919935Y-76390709D01*
X115363535Y-76207418D01*
X115703225Y-75868320D01*
X115887290Y-75425041D01*
X115887709Y-74945065D01*
X115806458Y-74748422D01*
X115824000Y-74751940D01*
X116713000Y-74751940D01*
X116955123Y-74704963D01*
X117167927Y-74565173D01*
X117217784Y-74491310D01*
X117369302Y-74642827D01*
X117602691Y-74739500D01*
X117887750Y-74739500D01*
X118046500Y-74580750D01*
X118046500Y-87400767D01*
X117993539Y-87381092D01*
X117343540Y-87405144D01*
X116854736Y-87607613D01*
X116756073Y-87874468D01*
X117729000Y-88847395D01*
X118701927Y-87874468D01*
X118701927Y-88233678D01*
X117908605Y-89027000D01*
X118881532Y-89999927D01*
X118887721Y-89997638D01*
X119301637Y-90412278D01*
X119902352Y-90661716D01*
X120552795Y-90662284D01*
X121153943Y-90413894D01*
X121614278Y-89954363D01*
X121863716Y-89353648D01*
X121864284Y-88703205D01*
X121864284Y-92152000D01*
X118701927Y-92152000D01*
X118701927Y-90179532D01*
X117729000Y-89206605D01*
X116756073Y-90179532D01*
X116854736Y-90446387D01*
X117464461Y-90672908D01*
X118114460Y-90648856D01*
X118603264Y-90446387D01*
X118701927Y-90179532D01*
X118701927Y-92152000D01*
X107777908Y-92152000D01*
X107777908Y-89291539D01*
X107753856Y-88641540D01*
X107551387Y-88152736D01*
X107284532Y-88054073D01*
X106311605Y-89027000D01*
X107284532Y-89999927D01*
X107551387Y-89901264D01*
X107777908Y-89291539D01*
X107777908Y-92152000D01*
X107104927Y-92152000D01*
X107104927Y-90179532D01*
X106132000Y-89206605D01*
X105159073Y-90179532D01*
X105257736Y-90446387D01*
X105867461Y-90672908D01*
X106517460Y-90648856D01*
X107006264Y-90446387D01*
X107104927Y-90179532D01*
X107104927Y-92152000D01*
X96697000Y-92152000D01*
X96697000Y-42722000D01*
X136983000Y-42722000D01*
X136983000Y-92152000D01*
X136983000Y-92152000D01*
G37*
X136983000Y-92152000D02*
X136283440Y-92152000D01*
X136283440Y-88455500D01*
X136283440Y-86423500D01*
X136283440Y-78041500D01*
X136283440Y-76009500D01*
X136236463Y-75767377D01*
X136225983Y-75751423D01*
X136225983Y-72328446D01*
X136225983Y-71562554D01*
X135957188Y-70977121D01*
X135484818Y-70539115D01*
X135002944Y-70339525D01*
X134747000Y-70458664D01*
X134747000Y-71818500D01*
X136107367Y-71818500D01*
X136225983Y-71562554D01*
X136225983Y-72328446D01*
X136107367Y-72072500D01*
X134747000Y-72072500D01*
X134747000Y-73432336D01*
X135002944Y-73551475D01*
X135484818Y-73351885D01*
X135957188Y-72913879D01*
X136225983Y-72328446D01*
X136225983Y-75751423D01*
X136096673Y-75554573D01*
X135885640Y-75412123D01*
X135636000Y-75362060D01*
X134493000Y-75362060D01*
X134493000Y-73432336D01*
X134493000Y-72072500D01*
X134493000Y-71818500D01*
X134493000Y-70458664D01*
X134237056Y-70339525D01*
X133755182Y-70539115D01*
X133282812Y-70977121D01*
X133014017Y-71562554D01*
X133132633Y-71818500D01*
X134493000Y-71818500D01*
X134493000Y-72072500D01*
X133132633Y-72072500D01*
X133014017Y-72328446D01*
X133282812Y-72913879D01*
X133755182Y-73351885D01*
X134237056Y-73551475D01*
X134493000Y-73432336D01*
X134493000Y-75362060D01*
X133604000Y-75362060D01*
X133361877Y-75409037D01*
X133149073Y-75548827D01*
X133006623Y-75759860D01*
X132956560Y-76009500D01*
X132956560Y-78041500D01*
X133003537Y-78283623D01*
X133143327Y-78496427D01*
X133354360Y-78638877D01*
X133604000Y-78688940D01*
X135636000Y-78688940D01*
X135878123Y-78641963D01*
X136090927Y-78502173D01*
X136233377Y-78291140D01*
X136283440Y-78041500D01*
X136283440Y-86423500D01*
X136236463Y-86181377D01*
X136225983Y-86165423D01*
X136225983Y-82742446D01*
X136225983Y-81976554D01*
X135957188Y-81391121D01*
X135484818Y-80953115D01*
X135002944Y-80753525D01*
X134747000Y-80872664D01*
X134747000Y-82232500D01*
X136107367Y-82232500D01*
X136225983Y-81976554D01*
X136225983Y-82742446D01*
X136107367Y-82486500D01*
X134747000Y-82486500D01*
X134747000Y-83846336D01*
X135002944Y-83965475D01*
X135484818Y-83765885D01*
X135957188Y-83327879D01*
X136225983Y-82742446D01*
X136225983Y-86165423D01*
X136096673Y-85968573D01*
X135885640Y-85826123D01*
X135636000Y-85776060D01*
X134493000Y-85776060D01*
X134493000Y-83846336D01*
X134493000Y-82486500D01*
X134493000Y-82232500D01*
X134493000Y-80872664D01*
X134237056Y-80753525D01*
X133755182Y-80953115D01*
X133282812Y-81391121D01*
X133014017Y-81976554D01*
X133132633Y-82232500D01*
X134493000Y-82232500D01*
X134493000Y-82486500D01*
X133132633Y-82486500D01*
X133014017Y-82742446D01*
X133282812Y-83327879D01*
X133755182Y-83765885D01*
X134237056Y-83965475D01*
X134493000Y-83846336D01*
X134493000Y-85776060D01*
X133604000Y-85776060D01*
X133361877Y-85823037D01*
X133149073Y-85962827D01*
X133006623Y-86173860D01*
X132956560Y-86423500D01*
X132956560Y-88455500D01*
X133003537Y-88697623D01*
X133143327Y-88910427D01*
X133354360Y-89052877D01*
X133604000Y-89102940D01*
X135636000Y-89102940D01*
X135878123Y-89055963D01*
X136090927Y-88916173D01*
X136233377Y-88705140D01*
X136283440Y-88455500D01*
X136283440Y-92152000D01*
X131331010Y-92152000D01*
X131331010Y-54255370D01*
X131058967Y-53596975D01*
X130555675Y-53092804D01*
X129897755Y-52819611D01*
X129185370Y-52818990D01*
X128526975Y-53091033D01*
X128022804Y-53594325D01*
X127749611Y-54252245D01*
X127748990Y-54964630D01*
X128021033Y-55623025D01*
X128524325Y-56127196D01*
X129182245Y-56400389D01*
X129894630Y-56401010D01*
X130553025Y-56128967D01*
X131057196Y-55625675D01*
X131330389Y-54967755D01*
X131331010Y-54255370D01*
X131331010Y-92152000D01*
X130397845Y-92152000D01*
X130397845Y-81026000D01*
X130283771Y-80452511D01*
X129958915Y-79966330D01*
X129644134Y-79756000D01*
X129958915Y-79545670D01*
X130283771Y-79059489D01*
X130397845Y-78486000D01*
X130283771Y-77912511D01*
X129958915Y-77426330D01*
X129472734Y-77101474D01*
X128899245Y-76987400D01*
X128529755Y-76987400D01*
X127956266Y-77101474D01*
X127470085Y-77426330D01*
X127145229Y-77912511D01*
X127031155Y-78486000D01*
X127145229Y-79059489D01*
X127470085Y-79545670D01*
X127784865Y-79756000D01*
X127470085Y-79966330D01*
X127145229Y-80452511D01*
X127031155Y-81026000D01*
X127145229Y-81599489D01*
X127470085Y-82085670D01*
X127485867Y-82096215D01*
X127456377Y-82101937D01*
X127243573Y-82241727D01*
X127101123Y-82452760D01*
X127051060Y-82702400D01*
X127051060Y-84429600D01*
X127098037Y-84671723D01*
X127237827Y-84884527D01*
X127448860Y-85026977D01*
X127698500Y-85077040D01*
X129730500Y-85077040D01*
X129972623Y-85030063D01*
X130185427Y-84890273D01*
X130327877Y-84679240D01*
X130377940Y-84429600D01*
X130377940Y-82702400D01*
X130330963Y-82460277D01*
X130191173Y-82247473D01*
X129980140Y-82105023D01*
X129941537Y-82097281D01*
X129958915Y-82085670D01*
X130283771Y-81599489D01*
X130397845Y-81026000D01*
X130397845Y-92152000D01*
X124675451Y-92152000D01*
X124675451Y-71178988D01*
X124675451Y-70408232D01*
X124404556Y-69817107D01*
X123928068Y-69374646D01*
X123439488Y-69172269D01*
X123181110Y-69291206D01*
X123181110Y-70666610D01*
X124556514Y-70666610D01*
X124675451Y-70408232D01*
X124675451Y-71178988D01*
X124556514Y-70920610D01*
X123181110Y-70920610D01*
X123181110Y-72296014D01*
X123439488Y-72414951D01*
X124030613Y-72144056D01*
X124473074Y-71667568D01*
X124675451Y-71178988D01*
X124675451Y-92152000D01*
X124523709Y-92152000D01*
X124523709Y-74691065D01*
X124340418Y-74247465D01*
X124001320Y-73907775D01*
X123558041Y-73723710D01*
X123078065Y-73723291D01*
X122927110Y-73785664D01*
X122927110Y-72296014D01*
X122927110Y-70920610D01*
X122927110Y-70666610D01*
X122927110Y-69291206D01*
X122668732Y-69172269D01*
X122077607Y-69443164D01*
X121635146Y-69919652D01*
X121432769Y-70408232D01*
X121551706Y-70666610D01*
X122927110Y-70666610D01*
X122927110Y-70920610D01*
X121551706Y-70920610D01*
X121432769Y-71178988D01*
X121703664Y-71770113D01*
X122180152Y-72212574D01*
X122668732Y-72414951D01*
X122927110Y-72296014D01*
X122927110Y-73785664D01*
X122634465Y-73906582D01*
X122487090Y-74053700D01*
X121876362Y-74053700D01*
X121862310Y-74044215D01*
X122013827Y-73892698D01*
X122110500Y-73659309D01*
X122110500Y-73374250D01*
X122110500Y-72802750D01*
X122110500Y-72517691D01*
X122013827Y-72284302D01*
X121835199Y-72105673D01*
X121601810Y-72009000D01*
X121349191Y-72009000D01*
X121152460Y-72009000D01*
X121152460Y-66933492D01*
X120904148Y-66332531D01*
X120765570Y-66193711D01*
X120765570Y-58956033D01*
X120765570Y-57883967D01*
X120660100Y-57353732D01*
X120359746Y-56904221D01*
X119910235Y-56603867D01*
X119380000Y-56498397D01*
X118849765Y-56603867D01*
X118400254Y-56904221D01*
X118110000Y-57338616D01*
X117819746Y-56904221D01*
X117370235Y-56603867D01*
X116840000Y-56498397D01*
X116309765Y-56603867D01*
X115860254Y-56904221D01*
X115570000Y-57338616D01*
X115279746Y-56904221D01*
X114830235Y-56603867D01*
X114300000Y-56498397D01*
X113769765Y-56603867D01*
X113320254Y-56904221D01*
X113019900Y-57353732D01*
X112914430Y-57883967D01*
X112914430Y-58956033D01*
X113019900Y-59486268D01*
X113320254Y-59935779D01*
X113769765Y-60236133D01*
X114300000Y-60341603D01*
X114830235Y-60236133D01*
X115279746Y-59935779D01*
X115570000Y-59501383D01*
X115860254Y-59935779D01*
X116309765Y-60236133D01*
X116840000Y-60341603D01*
X117370235Y-60236133D01*
X117819746Y-59935779D01*
X118110000Y-59501383D01*
X118400254Y-59935779D01*
X118849765Y-60236133D01*
X119380000Y-60341603D01*
X119910235Y-60236133D01*
X120359746Y-59935779D01*
X120660100Y-59486268D01*
X120765570Y-58956033D01*
X120765570Y-66193711D01*
X120444759Y-65872340D01*
X119844233Y-65622980D01*
X119193992Y-65622412D01*
X118593031Y-65870724D01*
X118132840Y-66330113D01*
X117883480Y-66930639D01*
X117882912Y-67580880D01*
X118131224Y-68181841D01*
X118590613Y-68642032D01*
X119191139Y-68891392D01*
X119841380Y-68891960D01*
X120442341Y-68643648D01*
X120902532Y-68184259D01*
X121151892Y-67583733D01*
X121152460Y-66933492D01*
X121152460Y-72009000D01*
X121062750Y-72009000D01*
X120904000Y-72167750D01*
X120904000Y-72961500D01*
X121951750Y-72961500D01*
X122110500Y-72802750D01*
X122110500Y-73374250D01*
X121951750Y-73215500D01*
X120904000Y-73215500D01*
X120904000Y-73235500D01*
X120650000Y-73235500D01*
X120650000Y-73215500D01*
X120650000Y-72961500D01*
X120650000Y-72167750D01*
X120491250Y-72009000D01*
X120204809Y-72009000D01*
X119952190Y-72009000D01*
X119718801Y-72105673D01*
X119540173Y-72284302D01*
X119443500Y-72517691D01*
X119443500Y-72802750D01*
X119602250Y-72961500D01*
X120650000Y-72961500D01*
X120650000Y-73215500D01*
X119602250Y-73215500D01*
X119443500Y-73374250D01*
X119443500Y-73659309D01*
X119540173Y-73892698D01*
X119691306Y-74043832D01*
X119623573Y-74088327D01*
X119481123Y-74299360D01*
X119431060Y-74549000D01*
X119431060Y-75438000D01*
X119478037Y-75680123D01*
X119617827Y-75892927D01*
X119828860Y-76035377D01*
X120078500Y-76085440D01*
X121475500Y-76085440D01*
X121717623Y-76038463D01*
X121877713Y-75933300D01*
X122613787Y-75933300D01*
X122632680Y-75952225D01*
X123075959Y-76136290D01*
X123555935Y-76136709D01*
X123999535Y-75953418D01*
X124339225Y-75614320D01*
X124523290Y-75171041D01*
X124523709Y-74691065D01*
X124523709Y-92152000D01*
X124464000Y-92152000D01*
X124464000Y-85860991D01*
X124464000Y-85593009D01*
X124339543Y-84967322D01*
X123985120Y-84436889D01*
X123454687Y-84082466D01*
X122829000Y-83958009D01*
X122203313Y-84082466D01*
X121672880Y-84436889D01*
X121318457Y-84967322D01*
X121194000Y-85593009D01*
X121194000Y-85860991D01*
X121318457Y-86486678D01*
X121672880Y-87017111D01*
X122203313Y-87371534D01*
X122829000Y-87495991D01*
X123454687Y-87371534D01*
X123985120Y-87017111D01*
X124339543Y-86486678D01*
X124464000Y-85860991D01*
X124464000Y-92152000D01*
X121864284Y-92152000D01*
X121864284Y-88703205D01*
X121615894Y-88102057D01*
X121156363Y-87641722D01*
X120555648Y-87392284D01*
X119905205Y-87391716D01*
X119304057Y-87640106D01*
X119253000Y-87691073D01*
X119253000Y-74230810D01*
X119253000Y-73978191D01*
X119253000Y-73691750D01*
X119253000Y-73120250D01*
X119253000Y-72833809D01*
X119253000Y-72581190D01*
X119156327Y-72347801D01*
X118977698Y-72169173D01*
X118744309Y-72072500D01*
X118459250Y-72072500D01*
X118300500Y-72231250D01*
X118300500Y-73279000D01*
X119094250Y-73279000D01*
X119253000Y-73120250D01*
X119253000Y-73691750D01*
X119094250Y-73533000D01*
X118300500Y-73533000D01*
X118300500Y-74580750D01*
X118459250Y-74739500D01*
X118744309Y-74739500D01*
X118977698Y-74642827D01*
X119156327Y-74464199D01*
X119253000Y-74230810D01*
X119253000Y-87691073D01*
X118887248Y-88056186D01*
X118881532Y-88054073D01*
X118701927Y-88233678D01*
X118701927Y-87874468D01*
X118603264Y-87607613D01*
X118046500Y-87400767D01*
X118046500Y-74580750D01*
X118046500Y-73533000D01*
X118026500Y-73533000D01*
X118026500Y-73279000D01*
X118046500Y-73279000D01*
X118046500Y-72231250D01*
X117887750Y-72072500D01*
X117602691Y-72072500D01*
X117369302Y-72169173D01*
X117218167Y-72320306D01*
X117173673Y-72252573D01*
X116962640Y-72110123D01*
X116713000Y-72060060D01*
X115824000Y-72060060D01*
X115581877Y-72107037D01*
X115369073Y-72246827D01*
X115226623Y-72457860D01*
X115224950Y-72466200D01*
X114808000Y-72466200D01*
X109990278Y-72466200D01*
X109537607Y-72013529D01*
X109537709Y-71897065D01*
X109354418Y-71453465D01*
X109015320Y-71113775D01*
X108572041Y-70929710D01*
X108092065Y-70929291D01*
X107648465Y-71112582D01*
X107308775Y-71451680D01*
X107124710Y-71894959D01*
X107124606Y-72013315D01*
X106036722Y-73101200D01*
X105931010Y-73101200D01*
X105931010Y-54255370D01*
X105658967Y-53596975D01*
X105155675Y-53092804D01*
X104497755Y-52819611D01*
X103785370Y-52818990D01*
X103126975Y-53091033D01*
X102622804Y-53594325D01*
X102349611Y-54252245D01*
X102348990Y-54964630D01*
X102621033Y-55623025D01*
X103124325Y-56127196D01*
X103782245Y-56400389D01*
X104494630Y-56401010D01*
X105153025Y-56128967D01*
X105657196Y-55625675D01*
X105930389Y-54967755D01*
X105931010Y-54255370D01*
X105931010Y-73101200D01*
X104425365Y-73101200D01*
X104410173Y-73078073D01*
X104199140Y-72935623D01*
X103949500Y-72885560D01*
X102552500Y-72885560D01*
X102310377Y-72932537D01*
X102171103Y-73024025D01*
X102040140Y-72935623D01*
X101790500Y-72885560D01*
X100393500Y-72885560D01*
X100151377Y-72932537D01*
X99938573Y-73072327D01*
X99796123Y-73283360D01*
X99746060Y-73533000D01*
X99746060Y-74422000D01*
X99793037Y-74664123D01*
X99932827Y-74876927D01*
X100006689Y-74926784D01*
X99855173Y-75078302D01*
X99758500Y-75311691D01*
X99758500Y-75596750D01*
X99917250Y-75755500D01*
X100965000Y-75755500D01*
X100965000Y-75735500D01*
X101219000Y-75735500D01*
X101219000Y-75755500D01*
X101239000Y-75755500D01*
X101239000Y-76009500D01*
X101219000Y-76009500D01*
X101219000Y-76803250D01*
X101377750Y-76962000D01*
X101664191Y-76962000D01*
X101916810Y-76962000D01*
X102150199Y-76865327D01*
X102176466Y-76839059D01*
X102302860Y-76924377D01*
X102489000Y-76961705D01*
X102489000Y-77594358D01*
X102336378Y-77746714D01*
X102171687Y-78143332D01*
X102171313Y-78572784D01*
X102335311Y-78969689D01*
X102638714Y-79273622D01*
X103035332Y-79438313D01*
X103186492Y-79438444D01*
X104394000Y-80484951D01*
X104394000Y-87400098D01*
X104255473Y-87515536D01*
X103958648Y-87392284D01*
X103308205Y-87391716D01*
X102707057Y-87640106D01*
X102381835Y-87964759D01*
X102059363Y-87641722D01*
X101458648Y-87392284D01*
X100965000Y-87391852D01*
X100965000Y-76803250D01*
X100965000Y-76009500D01*
X99917250Y-76009500D01*
X99758500Y-76168250D01*
X99758500Y-76453309D01*
X99855173Y-76686698D01*
X100033801Y-76865327D01*
X100267190Y-76962000D01*
X100519809Y-76962000D01*
X100806250Y-76962000D01*
X100965000Y-76803250D01*
X100965000Y-87391852D01*
X100808205Y-87391716D01*
X100207057Y-87640106D01*
X100167000Y-87680093D01*
X100167000Y-85860991D01*
X100167000Y-85593009D01*
X100042543Y-84967322D01*
X99688120Y-84436889D01*
X99157687Y-84082466D01*
X98532000Y-83958009D01*
X97906313Y-84082466D01*
X97375880Y-84436889D01*
X97021457Y-84967322D01*
X96897000Y-85593009D01*
X96897000Y-85860991D01*
X97021457Y-86486678D01*
X97375880Y-87017111D01*
X97906313Y-87371534D01*
X98532000Y-87495991D01*
X99157687Y-87371534D01*
X99688120Y-87017111D01*
X100042543Y-86486678D01*
X100167000Y-85860991D01*
X100167000Y-87680093D01*
X99746722Y-88099637D01*
X99497284Y-88700352D01*
X99496716Y-89350795D01*
X99745106Y-89951943D01*
X100204637Y-90412278D01*
X100805352Y-90661716D01*
X101455795Y-90662284D01*
X102056943Y-90413894D01*
X102382164Y-90089240D01*
X102704637Y-90412278D01*
X103305352Y-90661716D01*
X103955795Y-90662284D01*
X104556943Y-90413894D01*
X104973751Y-89997813D01*
X104979468Y-89999927D01*
X105952395Y-89027000D01*
X105938252Y-89012857D01*
X106117857Y-88833252D01*
X106132000Y-88847395D01*
X107104927Y-87874468D01*
X107006264Y-87607613D01*
X106396539Y-87381092D01*
X105918000Y-87398799D01*
X105918000Y-81087630D01*
X105981611Y-81151241D01*
X105981313Y-81493784D01*
X106145311Y-81890689D01*
X106448714Y-82194622D01*
X106845332Y-82359313D01*
X107189982Y-82359613D01*
X108802377Y-83972007D01*
X108732000Y-83958009D01*
X108106313Y-84082466D01*
X107575880Y-84436889D01*
X107221457Y-84967322D01*
X107097000Y-85593009D01*
X107097000Y-85860991D01*
X107221457Y-86486678D01*
X107575880Y-87017111D01*
X108106313Y-87371534D01*
X108732000Y-87495991D01*
X109357687Y-87371534D01*
X109855000Y-87039241D01*
X109855000Y-87376000D01*
X109913004Y-87667605D01*
X110078185Y-87914815D01*
X111729185Y-89565816D01*
X111976395Y-89730996D01*
X111976396Y-89730997D01*
X112268000Y-89789000D01*
X113774779Y-89789000D01*
X113842106Y-89951943D01*
X114301637Y-90412278D01*
X114902352Y-90661716D01*
X115552795Y-90662284D01*
X116153943Y-90413894D01*
X116570751Y-89997813D01*
X116576468Y-89999927D01*
X117549395Y-89027000D01*
X116576468Y-88054073D01*
X116570278Y-88056361D01*
X116156363Y-87641722D01*
X115555648Y-87392284D01*
X114905205Y-87391716D01*
X114304057Y-87640106D01*
X113843722Y-88099637D01*
X113775057Y-88265000D01*
X112583630Y-88265000D01*
X111379000Y-87060369D01*
X111379000Y-86876609D01*
X111472880Y-87017111D01*
X112003313Y-87371534D01*
X112629000Y-87495991D01*
X113254687Y-87371534D01*
X113785120Y-87017111D01*
X114139543Y-86486678D01*
X114264000Y-85860991D01*
X114264000Y-85593009D01*
X114139543Y-84967322D01*
X113785120Y-84436889D01*
X113254687Y-84082466D01*
X112629000Y-83958009D01*
X112003313Y-84082466D01*
X111472880Y-84436889D01*
X111358826Y-84607582D01*
X111320996Y-84417395D01*
X111155815Y-84170185D01*
X111155815Y-84170184D01*
X108140609Y-81154979D01*
X108140687Y-81066216D01*
X107976689Y-80669311D01*
X107673286Y-80365378D01*
X107276668Y-80200687D01*
X107186238Y-80200608D01*
X105791000Y-78805370D01*
X105791000Y-78234641D01*
X105943622Y-78082286D01*
X106108313Y-77685668D01*
X106108687Y-77256216D01*
X105944689Y-76859311D01*
X105641286Y-76555378D01*
X105244668Y-76390687D01*
X104815216Y-76390313D01*
X104563375Y-76494371D01*
X104596940Y-76327000D01*
X104596940Y-75438000D01*
X104549963Y-75195877D01*
X104410173Y-74983073D01*
X104406805Y-74980800D01*
X106426000Y-74980800D01*
X106785646Y-74909262D01*
X107090539Y-74705539D01*
X108331000Y-73465078D01*
X108936461Y-74070539D01*
X109241354Y-74274262D01*
X109601000Y-74345800D01*
X113812923Y-74345800D01*
X113658775Y-74499680D01*
X113474710Y-74942959D01*
X113474291Y-75422935D01*
X113657582Y-75866535D01*
X113996680Y-76206225D01*
X114439959Y-76390290D01*
X114919935Y-76390709D01*
X115363535Y-76207418D01*
X115703225Y-75868320D01*
X115887290Y-75425041D01*
X115887709Y-74945065D01*
X115806458Y-74748422D01*
X115824000Y-74751940D01*
X116713000Y-74751940D01*
X116955123Y-74704963D01*
X117167927Y-74565173D01*
X117217784Y-74491310D01*
X117369302Y-74642827D01*
X117602691Y-74739500D01*
X117887750Y-74739500D01*
X118046500Y-74580750D01*
X118046500Y-87400767D01*
X117993539Y-87381092D01*
X117343540Y-87405144D01*
X116854736Y-87607613D01*
X116756073Y-87874468D01*
X117729000Y-88847395D01*
X118701927Y-87874468D01*
X118701927Y-88233678D01*
X117908605Y-89027000D01*
X118881532Y-89999927D01*
X118887721Y-89997638D01*
X119301637Y-90412278D01*
X119902352Y-90661716D01*
X120552795Y-90662284D01*
X121153943Y-90413894D01*
X121614278Y-89954363D01*
X121863716Y-89353648D01*
X121864284Y-88703205D01*
X121864284Y-92152000D01*
X118701927Y-92152000D01*
X118701927Y-90179532D01*
X117729000Y-89206605D01*
X116756073Y-90179532D01*
X116854736Y-90446387D01*
X117464461Y-90672908D01*
X118114460Y-90648856D01*
X118603264Y-90446387D01*
X118701927Y-90179532D01*
X118701927Y-92152000D01*
X107777908Y-92152000D01*
X107777908Y-89291539D01*
X107753856Y-88641540D01*
X107551387Y-88152736D01*
X107284532Y-88054073D01*
X106311605Y-89027000D01*
X107284532Y-89999927D01*
X107551387Y-89901264D01*
X107777908Y-89291539D01*
X107777908Y-92152000D01*
X107104927Y-92152000D01*
X107104927Y-90179532D01*
X106132000Y-89206605D01*
X105159073Y-90179532D01*
X105257736Y-90446387D01*
X105867461Y-90672908D01*
X106517460Y-90648856D01*
X107006264Y-90446387D01*
X107104927Y-90179532D01*
X107104927Y-92152000D01*
X96697000Y-92152000D01*
X96697000Y-42722000D01*
X136983000Y-42722000D01*
X136983000Y-92152000D01*
M02*
