<?xml version="1.0" standalone="no"?>
 <!DOCTYPE svg PUBLIC "-//W3C//DTD SVG 1.1//EN" 
 "http://www.w3.org/Graphics/SVG/1.1/DTD/svg11.dtd"> 
<svg xmlns="http://www.w3.org/2000/svg" version="1.1" 
    width="5.17906cm" height="6.1468cm" viewBox="0 0 20390 24200 ">
<title>SVG Picture created as CurrentSinkOrSwim-F_SilkS.svg date 2020/09/26 16:13:13 </title>
  <desc>Picture generated by PCBNEW </desc>
<g style="fill:#000000; fill-opacity:1;stroke:#000000; stroke-opacity:1;
stroke-linecap:round; stroke-linejoin:round; "
 transform="translate(0 0) scale(1 1)">
</g>
<g style="fill:#000000; fill-opacity:0.0; 
stroke:#000000; stroke-width:-0.000393701; stroke-opacity:1; 
stroke-linecap:round; stroke-linejoin:round;">
</g>
<g style="fill:#73F0FF; fill-opacity:0.0; 
stroke:#73F0FF; stroke-width:-0.000393701; stroke-opacity:1; 
stroke-linecap:round; stroke-linejoin:round;">
</g>
<g style="fill:#73F0FF; fill-opacity:0.0; 
stroke:#73F0FF; stroke-width:50; stroke-opacity:1; 
stroke-linecap:round; stroke-linejoin:round;">
<g transform="rotate(-90 14000 17250)">
<text x="14000" y="17500"
textLength="3885.33" font-size="666.667" lengthAdjust="spacingAndGlyphs"
text-anchor="middle" opacity="0">Ext | Self</text>
</g>
<path d="M13964 19047
L13964 18880
" />
<path d="M14226 18809
L14226 19047
L13726 19047
L13726 18809
" />
<path d="M14226 18642
L13892 18380
" />
<path d="M13892 18642
L14226 18380
" />
<path d="M13892 18261
L13892 18071
" />
<path d="M13726 18190
L14154 18190
L14202 18166
L14226 18119
L14226 18071
" />
<path d="M14392 17404
L13678 17404
" />
<path d="M14202 16690
L14226 16619
L14226 16500
L14202 16452
L14178 16428
L14130 16404
L14083 16404
L14035 16428
L14011 16452
L13988 16500
L13964 16595
L13940 16642
L13916 16666
L13869 16690
L13821 16690
L13773 16666
L13750 16642
L13726 16595
L13726 16476
L13750 16404
" />
<path d="M14202 16000
L14226 16047
L14226 16142
L14202 16190
L14154 16214
L13964 16214
L13916 16190
L13892 16142
L13892 16047
L13916 16000
L13964 15976
L14011 15976
L14059 16214
" />
<path d="M14226 15690
L14202 15738
L14154 15761
L13726 15761
" />
<path d="M13892 15571
L13892 15380
" />
<path d="M14226 15500
L13797 15500
L13750 15476
L13726 15428
L13726 15380
" />
<g transform="rotate(-90 19719.7 14818.9)">
<text x="19719.7" y="15068.9"
textLength="1636.43" font-size="666.667" lengthAdjust="spacingAndGlyphs"
text-anchor="middle" opacity="0">Sink</text>
</g>
<path d="M19922 15509
L19945 15437
L19945 15318
L19922 15271
L19898 15247
L19850 15223
L19803 15223
L19755 15247
L19731 15271
L19707 15318
L19683 15414
L19660 15461
L19636 15485
L19588 15509
L19541 15509
L19493 15485
L19469 15461
L19445 15414
L19445 15295
L19469 15223
" />
<path d="M19945 15009
L19612 15009
" />
<path d="M19445 15009
L19469 15033
L19493 15009
L19469 14985
L19445 15009
L19493 15009
" />
<path d="M19612 14771
L19945 14771
" />
<path d="M19660 14771
L19636 14747
L19612 14699
L19612 14628
L19636 14580
L19683 14556
L19945 14556
" />
<path d="M19945 14318
L19445 14318
" />
<path d="M19755 14271
L19945 14128
" />
<path d="M19612 14128
L19803 14318
" />
<g transform="rotate(-90 19778.7 18913.4)">
<text x="19778.7" y="19163.4"
textLength="3684.05" font-size="666.667" lengthAdjust="spacingAndGlyphs"
text-anchor="middle" opacity="0">Extern 5V</text>
</g>
<path d="M19743 20603
L19743 20437
" />
<path d="M20004 20365
L20004 20603
L19504 20603
L19504 20365
" />
<path d="M20004 20199
L19671 19937
" />
<path d="M19671 20199
L20004 19937
" />
<path d="M19671 19818
L19671 19627
" />
<path d="M19504 19746
L19933 19746
L19981 19722
L20004 19675
L20004 19627
" />
<path d="M19981 19270
L20004 19318
L20004 19413
L19981 19461
L19933 19484
L19743 19484
L19695 19461
L19671 19413
L19671 19318
L19695 19270
L19743 19246
L19790 19246
L19838 19484
" />
<path d="M20004 19032
L19671 19032
" />
<path d="M19766 19032
L19719 19008
L19695 18984
L19671 18937
L19671 18889
" />
<path d="M19671 18722
L20004 18722
" />
<path d="M19719 18722
L19695 18699
L19671 18651
L19671 18580
L19695 18532
L19743 18508
L20004 18508
" />
<path d="M19504 17651
L19504 17889
L19743 17913
L19719 17889
L19695 17841
L19695 17722
L19719 17675
L19743 17651
L19790 17627
L19909 17627
L19957 17651
L19981 17675
L20004 17722
L20004 17841
L19981 17889
L19957 17913
" />
<path d="M19504 17484
L20004 17318
L19504 17151
" />
</g>
<g style="fill:#73F0FF; fill-opacity:0.0; 
stroke:#73F0FF; stroke-width:118.11; stroke-opacity:1; 
stroke-linecap:round; stroke-linejoin:round;">
<g transform="rotate(-90 19000 18850)">
<text x="19000" y="19145.3"
textLength="2877.15" font-size="787.402" lengthAdjust="spacingAndGlyphs"
text-anchor="middle" opacity="0">+   -</text>
</g>
<path d="M19042 20115
L19042 19665
" />
<path d="M19267 19890
L18817 19890
" />
<path d="M19042 18034
L19042 17584
" />
<g transform="rotate(-90 18800 14800)">
<text x="18800" y="15095.3"
textLength="2965.69" font-size="787.402" lengthAdjust="spacingAndGlyphs"
text-anchor="middle" opacity="0">+   -</text>
</g>
<path d="M18842 16065
L18842 15615
" />
<path d="M19067 15840
L18617 15840
" />
<path d="M18842 13984
L18842 13534
" />
</g>
<g style="fill:#73F0FF; fill-opacity:0.0; 
stroke:#73F0FF; stroke-width:50; stroke-opacity:1; 
stroke-linecap:round; stroke-linejoin:round;">
<text x="8219.69" y="22630.9"
textLength="2344.02" font-size="533.333" lengthAdjust="spacingAndGlyphs"
text-anchor="middle" opacity="0">Current</text>
<path d="M7448 22573
L7429 22592
L7372 22611
L7333 22611
L7276 22592
L7238 22554
L7219 22516
L7200 22440
L7200 22383
L7219 22307
L7238 22269
L7276 22230
L7333 22211
L7372 22211
L7429 22230
L7448 22249
" />
<path d="M7791 22345
L7791 22611
" />
<path d="M7619 22345
L7619 22554
L7638 22592
L7676 22611
L7733 22611
L7772 22592
L7791 22573
" />
<path d="M7981 22611
L7981 22345
" />
<path d="M7981 22421
L8000 22383
L8019 22364
L8057 22345
L8095 22345
" />
<path d="M8229 22611
L8229 22345
" />
<path d="M8229 22421
L8248 22383
L8267 22364
L8305 22345
L8343 22345
" />
<path d="M8629 22592
L8591 22611
L8514 22611
L8476 22592
L8457 22554
L8457 22402
L8476 22364
L8514 22345
L8591 22345
L8629 22364
L8648 22402
L8648 22440
L8457 22478
" />
<path d="M8819 22345
L8819 22611
" />
<path d="M8819 22383
L8838 22364
L8876 22345
L8933 22345
L8972 22364
L8991 22402
L8991 22611
" />
<path d="M9124 22345
L9276 22345
" />
<path d="M9181 22211
L9181 22554
L9200 22592
L9238 22611
L9276 22611
" />
<text x="8219.69" y="23280.9"
textLength="1150.71" font-size="533.333" lengthAdjust="spacingAndGlyphs"
text-anchor="middle" opacity="0">Ctrl</text>
<path d="M8000 23223
L7981 23242
L7924 23261
L7886 23261
L7829 23242
L7791 23204
L7772 23166
L7753 23090
L7753 23033
L7772 22957
L7791 22919
L7829 22880
L7886 22861
L7924 22861
L7981 22880
L8000 22899
" />
<path d="M8114 22995
L8267 22995
" />
<path d="M8172 22861
L8172 23204
L8191 23242
L8229 23261
L8267 23261
" />
<path d="M8400 23261
L8400 22995
" />
<path d="M8400 23071
L8419 23033
L8438 23014
L8476 22995
L8514 22995
" />
<path d="M8705 23261
L8667 23242
L8648 23204
L8648 22861
" />
<text x="2833.86" y="22583.7"
textLength="2579.29" font-size="533.333" lengthAdjust="spacingAndGlyphs"
text-anchor="middle" opacity="0">Voltage </text>
<path d="M1614 22164
L1748 22564
L1881 22164
" />
<path d="M2071 22564
L2033 22545
L2014 22526
L1995 22488
L1995 22374
L2014 22336
L2033 22316
L2071 22297
L2129 22297
L2167 22316
L2186 22336
L2205 22374
L2205 22488
L2186 22526
L2167 22545
L2129 22564
L2071 22564
" />
<path d="M2433 22564
L2395 22545
L2376 22507
L2376 22164
" />
<path d="M2529 22297
L2681 22297
" />
<path d="M2586 22164
L2586 22507
L2605 22545
L2643 22564
L2681 22564
" />
<path d="M2986 22564
L2986 22355
L2967 22316
L2929 22297
L2852 22297
L2814 22316
" />
<path d="M2986 22545
L2948 22564
L2852 22564
L2814 22545
L2795 22507
L2795 22469
L2814 22431
L2852 22412
L2948 22412
L2986 22393
" />
<path d="M3348 22297
L3348 22621
L3329 22659
L3310 22678
L3271 22697
L3214 22697
L3176 22678
" />
<path d="M3348 22545
L3310 22564
L3233 22564
L3195 22545
L3176 22526
L3157 22488
L3157 22374
L3176 22336
L3195 22316
L3233 22297
L3310 22297
L3348 22316
" />
<path d="M3691 22545
L3652 22564
L3576 22564
L3538 22545
L3519 22507
L3519 22355
L3538 22316
L3576 22297
L3652 22297
L3691 22316
L3710 22355
L3710 22393
L3519 22431
" />
<text x="2833.86" y="23233.7"
textLength="1150.71" font-size="533.333" lengthAdjust="spacingAndGlyphs"
text-anchor="middle" opacity="0">Ctrl</text>
<path d="M2614 23176
L2595 23195
L2538 23214
L2500 23214
L2443 23195
L2405 23157
L2386 23119
L2367 23043
L2367 22986
L2386 22909
L2405 22871
L2443 22833
L2500 22814
L2538 22814
L2595 22833
L2614 22852
" />
<path d="M2729 22947
L2881 22947
" />
<path d="M2786 22814
L2786 23157
L2805 23195
L2843 23214
L2881 23214
" />
<path d="M3014 23214
L3014 22947
" />
<path d="M3014 23024
L3033 22986
L3052 22966
L3091 22947
L3129 22947
" />
<path d="M3319 23214
L3281 23195
L3262 23157
L3262 22814
" />
</g>
<g style="fill:#73F0FF; fill-opacity:0.0; 
stroke:#73F0FF; stroke-width:118.11; stroke-opacity:1; 
stroke-linecap:round; stroke-linejoin:round;">
<text x="9925" y="5518.31"
textLength="5604.93" font-size="787.402" lengthAdjust="spacingAndGlyphs"
text-anchor="middle" opacity="0">Current Sink</text>
<path d="M7633 5433
L7604 5462
L7520 5490
L7464 5490
L7380 5462
L7323 5405
L7295 5349
L7267 5237
L7267 5152
L7295 5040
L7323 4983
L7380 4927
L7464 4899
L7520 4899
L7604 4927
L7633 4955
" />
<path d="M8139 5096
L8139 5490
" />
<path d="M7886 5096
L7886 5405
L7914 5462
L7970 5490
L8054 5490
L8111 5462
L8139 5433
" />
<path d="M8420 5490
L8420 5096
" />
<path d="M8420 5208
L8448 5152
L8476 5124
L8532 5096
L8589 5096
" />
<path d="M8786 5490
L8786 5096
" />
<path d="M8786 5208
L8814 5152
L8842 5124
L8898 5096
L8954 5096
" />
<path d="M9376 5462
L9320 5490
L9207 5490
L9151 5462
L9123 5405
L9123 5180
L9151 5124
L9207 5096
L9320 5096
L9376 5124
L9404 5180
L9404 5237
L9123 5293
" />
<path d="M9657 5096
L9657 5490
" />
<path d="M9657 5152
L9685 5124
L9742 5096
L9826 5096
L9882 5124
L9910 5180
L9910 5490
" />
<path d="M10107 5096
L10332 5096
" />
<path d="M10192 4899
L10192 5405
L10220 5462
L10276 5490
L10332 5490
" />
<path d="M10951 5462
L11035 5490
L11176 5490
L11232 5462
L11260 5433
L11288 5377
L11288 5321
L11260 5265
L11232 5237
L11176 5208
L11063 5180
L11007 5152
L10979 5124
L10951 5068
L10951 5012
L10979 4955
L11007 4927
L11063 4899
L11204 4899
L11288 4927
" />
<path d="M11541 5490
L11541 5096
" />
<path d="M11541 4899
L11513 4927
L11541 4955
L11570 4927
L11541 4899
L11541 4955
" />
<path d="M11823 5096
L11823 5490
" />
<path d="M11823 5152
L11851 5124
L11907 5096
L11991 5096
L12048 5124
L12076 5180
L12076 5490
" />
<path d="M12357 5490
L12357 4899
" />
<path d="M12413 5265
L12582 5490
" />
<path d="M12582 5096
L12357 5321
" />
<text x="9925" y="6522.24"
textLength="4203.04" font-size="787.402" lengthAdjust="spacingAndGlyphs"
text-anchor="middle" opacity="0"> or Swim</text>
<path d="M8575 6494
L8518 6466
L8490 6437
L8462 6381
L8462 6212
L8490 6156
L8518 6128
L8575 6100
L8659 6100
L8715 6128
L8743 6156
L8772 6212
L8772 6381
L8743 6437
L8715 6466
L8659 6494
L8575 6494
" />
<path d="M9025 6494
L9025 6100
" />
<path d="M9025 6212
L9053 6156
L9081 6128
L9137 6100
L9193 6100
" />
<path d="M9812 6466
L9896 6494
L10037 6494
L10093 6466
L10121 6437
L10149 6381
L10149 6325
L10121 6269
L10093 6241
L10037 6212
L9925 6184
L9868 6156
L9840 6128
L9812 6072
L9812 6016
L9840 5959
L9868 5931
L9925 5903
L10065 5903
L10149 5931
" />
<path d="M10346 6100
L10459 6494
L10571 6212
L10684 6494
L10796 6100
" />
<path d="M11021 6494
L11021 6100
" />
<path d="M11021 5903
L10993 5931
L11021 5959
L11049 5931
L11021 5903
L11021 5959
" />
<path d="M11302 6494
L11302 6100
" />
<path d="M11302 6156
L11331 6128
L11387 6100
L11471 6100
L11527 6128
L11556 6184
L11556 6494
" />
<path d="M11556 6184
L11584 6128
L11640 6100
L11724 6100
L11781 6128
L11809 6184
L11809 6494
" />
</g>
<g style="fill:#73F0FF; fill-opacity:0.0; 
stroke:#73F0FF; stroke-width:47.2441; stroke-opacity:1; 
stroke-linecap:round; stroke-linejoin:round;">
<path d="M8172 7535
L12203 7535
" />
<path d="M8172 9362
L12203 9362
" />
<path d="M8172 7535
L8172 9362
" />
<path d="M12203 7535
L12203 9362
" />
<path d="M8172 8129
L12203 8129
" />
<path d="M9459 7535
L9459 8129
" />
<path d="M10916 7535
L10916 8129
" />
</g>
<g style="fill:#73F0FF; fill-opacity:0.0; 
stroke:#73F0FF; stroke-width:59.0551; stroke-opacity:1; 
stroke-linecap:round; stroke-linejoin:round;">
<path d="M8036 11307
L8036 10697
" />
<path d="M7563 11307
L7563 10697
" />
<circle cx="8600" cy="10650" r="50" /> 
<path d="M8600 11100
L8600 10700
" />
<path d="M8600 10700
L9200 10700
" />
<path d="M9200 10700
L9200 11100
" />
<path d="M9200 11500
L9200 11900
" />
<path d="M9200 11900
L8600 11900
" />
<path d="M8600 11900
L8600 11500
" />
<circle cx="7200" cy="15800" r="50" /> 
<path d="M7200 16250
L7200 15850
" />
<path d="M7200 15850
L7800 15850
" />
<path d="M7800 15850
L7800 16250
" />
<path d="M7800 16650
L7800 17050
" />
<path d="M7800 17050
L7200 17050
" />
<path d="M7200 17050
L7200 16650
" />
<circle cx="4400" cy="16500" r="50" /> 
<path d="M3950 16500
L4350 16500
" />
<path d="M4350 16500
L4350 17100
" />
<path d="M4350 17100
L3950 17100
" />
<path d="M3550 17100
L3150 17100
" />
<path d="M3150 17100
L3150 16500
" />
<path d="M3150 16500
L3550 16500
" />
<circle cx="3100" cy="18000" r="50" /> 
<path d="M3550 18000
L3150 18000
" />
<path d="M3150 18000
L3150 17400
" />
<path d="M3150 17400
L3550 17400
" />
<path d="M3950 17400
L4350 17400
" />
<path d="M4350 17400
L4350 18000
" />
<path d="M4350 18000
L3950 18000
" />
<circle cx="8100" cy="15800" r="50" /> 
<path d="M8100 16250
L8100 15850
" />
<path d="M8100 15850
L8700 15850
" />
<path d="M8700 15850
L8700 16250
" />
<path d="M8700 16650
L8700 17050
" />
<path d="M8700 17050
L8100 17050
" />
<path d="M8100 17050
L8100 16650
" />
<circle cx="13400" cy="17800" r="50" /> 
<path d="M13400 17350
L13400 17750
" />
<path d="M13400 17750
L12800 17750
" />
<path d="M12800 17750
L12800 17350
" />
<path d="M12800 16950
L12800 16550
" />
<path d="M12800 16550
L13400 16550
" />
<path d="M13400 16550
L13400 16950
" />
<circle cx="8500" cy="17250" r="50" /> 
<path d="M8050 17250
L8450 17250
" />
<path d="M8450 17250
L8450 17850
" />
<path d="M8450 17850
L8050 17850
" />
<path d="M7650 17850
L7250 17850
" />
<path d="M7250 17850
L7250 17250
" />
<path d="M7250 17250
L7650 17250
" />
<path d="M5250 13650
L5250 15650
" />
<path d="M5250 15650
L3450 15650
" />
<path d="M3450 15650
L3450 13650
" />
<path d="M3450 13650
L5250 13650
" />
<path d="M4650 13650
L4650 13850
" />
<path d="M4650 13850
L4150 13850
" />
<path d="M4150 13850
L4150 13650
" />
<path d="M11400 15800
L11400 17800
" />
<path d="M11400 17800
L9600 17800
" />
<path d="M9600 17800
L9600 15800
" />
<path d="M9600 15800
L11400 15800
" />
<path d="M10800 15800
L10800 16000
" />
<path d="M10800 16000
L10300 16000
" />
<path d="M10300 16000
L10300 15800
" />
<path d="M6853 7295
L13546 7295
" />
<path d="M13546 7295
L13546 11921
" />
<path d="M13546 11921
L18388 11921
" />
<path d="M18388 11921
L18388 2078
" />
<path d="M18388 2078
L13546 2078
" />
<path d="M13546 2078
L13546 6704
" />
<path d="M13546 6704
L6853 6704
" />
<path d="M6853 6704
L6853 2078
" />
<path d="M6853 2078
L2011 2078
" />
<path d="M2011 2078
L2011 11921
" />
<path d="M2011 11921
L6853 11921
" />
<path d="M6853 11921
L6853 7295
" />
<path d="M15625 20925
L18381 20925
" />
<path d="M18381 20925
L18381 16925
" />
<path d="M18381 16925
L15625 16925
" />
<path d="M15625 16925
L15625 20925
" />
<path d="M15625 16825
L18381 16825
" />
<path d="M18381 16825
L18381 12825
" />
<path d="M18381 12825
L15625 12825
" />
<path d="M15625 12825
L15625 16825
" />
<path d="M15375 17900
L15375 15900
" />
<path d="M15375 15900
L14375 15900
" />
<path d="M14375 15900
L14375 17900
" />
<path d="M14375 18900
L14375 17900
" />
<path d="M14375 17900
L15375 17900
" />
<path d="M14375 18900
L15375 18900
" />
<path d="M15375 18900
L15375 17900
" />
<path d="M11922 12647
L12201 12926
" />
<circle cx="11254.2" cy="11979.2" r="984" /> 
<path d="M8562 21913
L12420 21913
" />
<path d="M8562 18212
L12420 18212
" />
<path d="M12420 18212
L12420 21913
" />
<path d="M8562 18212
L8562 21913
" />
<path d="M3109 18224
L3109 21925
" />
<path d="M6967 18224
L6967 21925
" />
<path d="M3109 18224
L6967 18224
" />
<path d="M3109 21925
L6967 21925
" />
<text x="10188.2" y="7338.58"
textLength="1690.85" font-size="524.934" lengthAdjust="spacingAndGlyphs"
text-anchor="middle" opacity="0">Q201</text>
<path d="M9775 7357
L9738 7338
L9700 7301
L9644 7244
L9607 7226
L9569 7226
" />
<path d="M9588 7319
L9550 7301
L9513 7263
L9494 7188
L9494 7057
L9513 6982
L9550 6944
L9588 6926
L9663 6926
L9700 6944
L9738 6982
L9756 7057
L9756 7188
L9738 7263
L9700 7301
L9663 7319
L9588 7319
" />
<path d="M9906 6963
L9925 6944
L9963 6926
L10056 6926
L10094 6944
L10113 6963
L10131 7001
L10131 7038
L10113 7094
L9888 7319
L10131 7319
" />
<path d="M10375 6926
L10413 6926
L10450 6944
L10469 6963
L10488 7001
L10506 7076
L10506 7169
L10488 7244
L10469 7282
L10450 7301
L10413 7319
L10375 7319
L10338 7301
L10319 7282
L10300 7244
L10281 7169
L10281 7076
L10300 7001
L10319 6963
L10338 6944
L10375 6926
" />
<path d="M10881 7319
L10656 7319
" />
<path d="M10769 7319
L10769 6926
L10731 6982
L10694 7019
L10656 7038
" />
<g transform="rotate(-90 7800 9775)">
<text x="7800" y="9971.85"
textLength="1595.33" font-size="524.934" lengthAdjust="spacingAndGlyphs"
text-anchor="middle" opacity="0">D301</text>
</g>
<path d="M7978 10440
L7584 10440
L7584 10346
L7603 10290
L7640 10253
L7678 10234
L7753 10215
L7809 10215
L7884 10234
L7921 10253
L7959 10290
L7978 10346
L7978 10440
" />
<path d="M7584 10084
L7584 9840
L7734 9971
L7734 9915
L7753 9878
L7771 9859
L7809 9840
L7903 9840
L7940 9859
L7959 9878
L7978 9915
L7978 10028
L7959 10065
L7940 10084
" />
<path d="M7584 9596
L7584 9559
L7603 9521
L7621 9503
L7659 9484
L7734 9465
L7828 9465
L7903 9484
L7940 9503
L7959 9521
L7978 9559
L7978 9596
L7959 9634
L7940 9653
L7903 9671
L7828 9690
L7734 9690
L7659 9671
L7621 9653
L7603 9634
L7584 9596
" />
<path d="M7978 9090
L7978 9315
" />
<path d="M7978 9203
L7584 9203
L7640 9240
L7678 9278
L7696 9315
" />
<g transform="rotate(-90 8925 12725)">
<text x="8925" y="12921.9"
textLength="1595.33" font-size="524.934" lengthAdjust="spacingAndGlyphs"
text-anchor="middle" opacity="0">R201</text>
</g>
<path d="M9103 13165
L8915 13296
" />
<path d="M9103 13390
L8709 13390
L8709 13240
L8728 13203
L8746 13184
L8784 13165
L8840 13165
L8878 13184
L8896 13203
L8915 13240
L8915 13390
" />
<path d="M8746 13015
L8728 12996
L8709 12959
L8709 12865
L8728 12828
L8746 12809
L8784 12790
L8821 12790
L8878 12809
L9103 13034
L9103 12790
" />
<path d="M8709 12546
L8709 12509
L8728 12471
L8746 12453
L8784 12434
L8859 12415
L8953 12415
L9028 12434
L9065 12453
L9084 12471
L9103 12509
L9103 12546
L9084 12584
L9065 12603
L9028 12621
L8953 12640
L8859 12640
L8784 12621
L8746 12603
L8728 12584
L8709 12546
" />
<path d="M9103 12040
L9103 12265
" />
<path d="M9103 12153
L8709 12153
L8765 12190
L8803 12228
L8821 12265
" />
</g>
<g style="fill:#73F0FF; fill-opacity:0.0; 
stroke:#73F0FF; stroke-width:50; stroke-opacity:1; 
stroke-linecap:round; stroke-linejoin:round;">
<g transform="rotate(-90 6900 16375)">
<text x="6900" y="16525"
textLength="1233.91" font-size="400" lengthAdjust="spacingAndGlyphs"
text-anchor="middle" opacity="0">R202</text>
</g>
<path d="M7035 16710
L6892 16810
" />
<path d="M7035 16882
L6735 16882
L6735 16767
L6750 16739
L6764 16725
L6792 16710
L6835 16710
L6864 16725
L6878 16739
L6892 16767
L6892 16882
" />
<path d="M6764 16596
L6750 16582
L6735 16553
L6735 16482
L6750 16453
L6764 16439
L6792 16425
L6821 16425
L6864 16439
L7035 16610
L7035 16425
" />
<path d="M6735 16239
L6735 16210
L6750 16182
L6764 16167
L6792 16153
L6850 16139
L6921 16139
L6978 16153
L7007 16167
L7021 16182
L7035 16210
L7035 16239
L7021 16267
L7007 16282
L6978 16296
L6921 16310
L6850 16310
L6792 16296
L6764 16282
L6750 16267
L6735 16239
" />
<path d="M6764 16025
L6750 16010
L6735 15982
L6735 15910
L6750 15882
L6764 15867
L6792 15853
L6821 15853
L6864 15867
L7035 16039
L7035 15853
" />
</g>
<g style="fill:#73F0FF; fill-opacity:0.0; 
stroke:#73F0FF; stroke-width:59.0551; stroke-opacity:1; 
stroke-linecap:round; stroke-linejoin:round;">
<text x="5175" y="17121.9"
textLength="1583.56" font-size="524.934" lengthAdjust="spacingAndGlyphs"
text-anchor="middle" opacity="0">R301</text>
<path d="M4734 17103
L4603 16915
" />
<path d="M4509 17103
L4509 16709
L4659 16709
L4696 16728
L4715 16746
L4734 16784
L4734 16840
L4715 16878
L4696 16896
L4659 16915
L4509 16915
" />
<path d="M4865 16709
L5109 16709
L4978 16859
L5034 16859
L5071 16878
L5090 16896
L5109 16934
L5109 17028
L5090 17065
L5071 17084
L5034 17103
L4921 17103
L4884 17084
L4865 17065
" />
<path d="M5353 16709
L5390 16709
L5428 16728
L5446 16746
L5465 16784
L5484 16859
L5484 16953
L5465 17028
L5446 17065
L5428 17084
L5390 17103
L5353 17103
L5315 17084
L5296 17065
L5278 17028
L5259 16953
L5259 16859
L5278 16784
L5296 16746
L5315 16728
L5353 16709
" />
<path d="M5859 17103
L5634 17103
" />
<path d="M5746 17103
L5746 16709
L5709 16765
L5671 16803
L5634 16821
" />
</g>
<g style="fill:#73F0FF; fill-opacity:0.0; 
stroke:#73F0FF; stroke-width:50; stroke-opacity:1; 
stroke-linecap:round; stroke-linejoin:round;">
<g transform="rotate(-90 2725 17625)">
<text x="2725" y="17775"
textLength="1233.91" font-size="400" lengthAdjust="spacingAndGlyphs"
text-anchor="middle" opacity="0">R303</text>
</g>
<path d="M2860 17960
L2717 18060
" />
<path d="M2860 18132
L2560 18132
L2560 18017
L2575 17989
L2589 17975
L2617 17960
L2660 17960
L2689 17975
L2703 17989
L2717 18017
L2717 18132
" />
<path d="M2560 17860
L2560 17675
L2675 17775
L2675 17732
L2689 17703
L2703 17689
L2732 17675
L2803 17675
L2832 17689
L2846 17703
L2860 17732
L2860 17817
L2846 17846
L2832 17860
" />
<path d="M2560 17489
L2560 17460
L2575 17432
L2589 17417
L2617 17403
L2675 17389
L2746 17389
L2803 17403
L2832 17417
L2846 17432
L2860 17460
L2860 17489
L2846 17517
L2832 17532
L2803 17546
L2746 17560
L2675 17560
L2617 17546
L2589 17532
L2575 17517
L2560 17489
" />
<path d="M2560 17289
L2560 17103
L2675 17203
L2675 17160
L2689 17132
L2703 17117
L2732 17103
L2803 17103
L2832 17117
L2846 17132
L2860 17160
L2860 17246
L2846 17275
L2832 17289
" />
</g>
<g style="fill:#73F0FF; fill-opacity:0.0; 
stroke:#73F0FF; stroke-width:59.0551; stroke-opacity:1; 
stroke-linecap:round; stroke-linejoin:round;">
<text x="8350" y="15721.9"
textLength="1583.56" font-size="524.934" lengthAdjust="spacingAndGlyphs"
text-anchor="middle" opacity="0">R401</text>
<path d="M7909 15703
L7778 15515
" />
<path d="M7684 15703
L7684 15309
L7834 15309
L7871 15328
L7890 15346
L7909 15384
L7909 15440
L7890 15478
L7871 15496
L7834 15515
L7684 15515
" />
<path d="M8246 15440
L8246 15703
" />
<path d="M8153 15290
L8059 15571
L8303 15571
" />
<path d="M8528 15309
L8565 15309
L8603 15328
L8621 15346
L8640 15384
L8659 15459
L8659 15553
L8640 15628
L8621 15665
L8603 15684
L8565 15703
L8528 15703
L8490 15684
L8471 15665
L8453 15628
L8434 15553
L8434 15459
L8453 15384
L8471 15346
L8490 15328
L8528 15309
" />
<path d="M9034 15703
L8809 15703
" />
<path d="M8921 15703
L8921 15309
L8884 15365
L8846 15403
L8809 15421
" />
</g>
<g style="fill:#73F0FF; fill-opacity:0.0; 
stroke:#73F0FF; stroke-width:50; stroke-opacity:1; 
stroke-linecap:round; stroke-linejoin:round;">
<g transform="rotate(-90 13150 15800)">
<text x="13150" y="15950"
textLength="1233.91" font-size="400" lengthAdjust="spacingAndGlyphs"
text-anchor="middle" opacity="0">R402</text>
</g>
<path d="M13285 16135
L13142 16235
" />
<path d="M13285 16307
L12985 16307
L12985 16192
L13000 16164
L13014 16150
L13042 16135
L13085 16135
L13114 16150
L13128 16164
L13142 16192
L13142 16307
" />
<path d="M13085 15878
L13285 15878
" />
<path d="M12971 15950
L13185 16021
L13185 15835
" />
<path d="M12985 15664
L12985 15635
L13000 15607
L13014 15592
L13042 15578
L13100 15564
L13171 15564
L13228 15578
L13257 15592
L13271 15607
L13285 15635
L13285 15664
L13271 15692
L13257 15707
L13228 15721
L13171 15735
L13100 15735
L13042 15721
L13014 15707
L13000 15692
L12985 15664
" />
<path d="M13014 15450
L13000 15435
L12985 15407
L12985 15335
L13000 15307
L13014 15292
L13042 15278
L13071 15278
L13114 15292
L13285 15464
L13285 15278
" />
<g transform="rotate(-90 7000 17650)">
<text x="7000" y="17800"
textLength="1222.14" font-size="400" lengthAdjust="spacingAndGlyphs"
text-anchor="middle" opacity="0">R403</text>
</g>
<path d="M7135 17985
L6992 18085
" />
<path d="M7135 18157
L6835 18157
L6835 18042
L6850 18014
L6864 18000
L6892 17985
L6935 17985
L6964 18000
L6978 18014
L6992 18042
L6992 18157
" />
<path d="M6935 17728
L7135 17728
" />
<path d="M6821 17800
L7035 17871
L7035 17685
" />
<path d="M6835 17514
L6835 17485
L6850 17457
L6864 17442
L6892 17428
L6950 17414
L7021 17414
L7078 17428
L7107 17442
L7121 17457
L7135 17485
L7135 17514
L7121 17542
L7107 17557
L7078 17571
L7021 17585
L6950 17585
L6892 17571
L6864 17557
L6850 17542
L6835 17514
" />
<path d="M6835 17314
L6835 17128
L6950 17228
L6950 17185
L6964 17157
L6978 17142
L7007 17128
L7078 17128
L7107 17142
L7121 17157
L7135 17185
L7135 17271
L7121 17300
L7107 17314
" />
</g>
<g style="fill:#73F0FF; fill-opacity:0.0; 
stroke:#73F0FF; stroke-width:59.0551; stroke-opacity:1; 
stroke-linecap:round; stroke-linejoin:round;">
<text x="4300" y="13446.9"
textLength="1602.31" font-size="524.934" lengthAdjust="spacingAndGlyphs"
text-anchor="middle" opacity="0">U201</text>
<path d="M3625 13034
L3625 13353
L3643 13390
L3662 13409
L3700 13428
L3775 13428
L3812 13409
L3831 13390
L3850 13353
L3850 13034
" />
<path d="M4018 13071
L4037 13053
L4075 13034
L4168 13034
L4206 13053
L4225 13071
L4243 13109
L4243 13146
L4225 13203
L4000 13428
L4243 13428
" />
<path d="M4487 13034
L4524 13034
L4562 13053
L4581 13071
L4599 13109
L4618 13184
L4618 13278
L4599 13353
L4581 13390
L4562 13409
L4524 13428
L4487 13428
L4449 13409
L4431 13390
L4412 13353
L4393 13278
L4393 13184
L4412 13109
L4431 13071
L4449 13053
L4487 13034
" />
<path d="M4993 13428
L4768 13428
" />
<path d="M4881 13428
L4881 13034
L4843 13090
L4806 13128
L4768 13146
" />
<text x="10550" y="15721.9"
textLength="1614.08" font-size="524.934" lengthAdjust="spacingAndGlyphs"
text-anchor="middle" opacity="0">U401</text>
<path d="M9875 15309
L9875 15628
L9893 15665
L9912 15684
L9950 15703
L10025 15703
L10062 15684
L10081 15665
L10100 15628
L10100 15309
" />
<path d="M10456 15440
L10456 15703
" />
<path d="M10362 15290
L10268 15571
L10512 15571
" />
<path d="M10737 15309
L10774 15309
L10812 15328
L10831 15346
L10849 15384
L10868 15459
L10868 15553
L10849 15628
L10831 15665
L10812 15684
L10774 15703
L10737 15703
L10699 15684
L10681 15665
L10662 15628
L10643 15553
L10643 15459
L10662 15384
L10681 15346
L10699 15328
L10737 15309
" />
<path d="M11243 15703
L11018 15703
" />
<path d="M11131 15703
L11131 15309
L11093 15365
L11056 15403
L11018 15421
" />
<g transform="rotate(-90 15275 20200)">
<text x="15275" y="20396.9"
textLength="1595.33" font-size="524.934" lengthAdjust="spacingAndGlyphs"
text-anchor="middle" opacity="0">P102</text>
</g>
<path d="M15453 20865
L15059 20865
L15059 20715
L15078 20678
L15096 20659
L15134 20640
L15190 20640
L15228 20659
L15246 20678
L15265 20715
L15265 20865
" />
<path d="M15453 20265
L15453 20490
" />
<path d="M15453 20378
L15059 20378
L15115 20415
L15153 20453
L15171 20490
" />
<path d="M15059 20021
L15059 19984
L15078 19946
L15096 19928
L15134 19909
L15209 19890
L15303 19890
L15378 19909
L15415 19928
L15434 19946
L15453 19984
L15453 20021
L15434 20059
L15415 20078
L15378 20096
L15303 20115
L15209 20115
L15134 20096
L15096 20078
L15078 20059
L15059 20021
" />
<path d="M15096 19740
L15078 19721
L15059 19684
L15059 19590
L15078 19553
L15096 19534
L15134 19515
L15171 19515
L15228 19534
L15453 19759
L15453 19515
" />
<g transform="rotate(-90 15275 13725)">
<text x="15275" y="13921.9"
textLength="1595.33" font-size="524.934" lengthAdjust="spacingAndGlyphs"
text-anchor="middle" opacity="0">P103</text>
</g>
<path d="M15453 14390
L15059 14390
L15059 14240
L15078 14203
L15096 14184
L15134 14165
L15190 14165
L15228 14184
L15246 14203
L15265 14240
L15265 14390
" />
<path d="M15453 13790
L15453 14015
" />
<path d="M15453 13903
L15059 13903
L15115 13940
L15153 13978
L15171 14015
" />
<path d="M15059 13546
L15059 13509
L15078 13471
L15096 13453
L15134 13434
L15209 13415
L15303 13415
L15378 13434
L15415 13453
L15434 13471
L15453 13509
L15453 13546
L15434 13584
L15415 13603
L15378 13621
L15303 13640
L15209 13640
L15134 13621
L15096 13603
L15078 13584
L15059 13546
" />
<path d="M15059 13284
L15059 13040
L15209 13171
L15209 13115
L15228 13078
L15246 13059
L15284 13040
L15378 13040
L15415 13059
L15434 13078
L15453 13115
L15453 13228
L15434 13265
L15415 13284
" />
</g>
<g style="fill:#73F0FF; fill-opacity:0.0; 
stroke:#73F0FF; stroke-width:50; stroke-opacity:1; 
stroke-linecap:round; stroke-linejoin:round;">
<g transform="rotate(-90 14400 19700)">
<text x="14400" y="19850"
textLength="1233.91" font-size="400" lengthAdjust="spacingAndGlyphs"
text-anchor="middle" opacity="0">P101</text>
</g>
<path d="M14535 20207
L14235 20207
L14235 20092
L14250 20064
L14264 20050
L14292 20035
L14335 20035
L14364 20050
L14378 20064
L14392 20092
L14392 20207
" />
<path d="M14535 19750
L14535 19921
" />
<path d="M14535 19835
L14235 19835
L14278 19864
L14307 19892
L14321 19921
" />
<path d="M14235 19564
L14235 19535
L14250 19507
L14264 19492
L14292 19478
L14350 19464
L14421 19464
L14478 19478
L14507 19492
L14521 19507
L14535 19535
L14535 19564
L14521 19592
L14507 19607
L14478 19621
L14421 19635
L14350 19635
L14292 19621
L14264 19607
L14250 19592
L14235 19564
" />
<path d="M14535 19178
L14535 19350
" />
<path d="M14535 19264
L14235 19264
L14278 19292
L14307 19321
L14321 19350
" />
</g>
<g style="fill:#73F0FF; fill-opacity:0.0; 
stroke:#73F0FF; stroke-width:59.0551; stroke-opacity:1; 
stroke-linecap:round; stroke-linejoin:round;">
<g transform="rotate(45 13081.4 12321.4)">
<text x="13081.4" y="12518.3"
textLength="1583.56" font-size="524.934" lengthAdjust="spacingAndGlyphs"
text-anchor="middle" opacity="0">R203</text>
</g>
<path d="M12643 12135
L12683 11910
" />
<path d="M12484 11976
L12763 11698
L12869 11804
L12882 11844
L12882 11870
L12869 11910
L12829 11950
L12789 11963
L12763 11963
L12723 11950
L12617 11844
" />
<path d="M13001 11990
L13028 11990
L13068 12003
L13134 12069
L13147 12109
L13147 12135
L13134 12175
L13107 12202
L13054 12228
L12736 12228
L12909 12400
" />
<path d="M13359 12294
L13386 12321
L13399 12361
L13399 12387
L13386 12427
L13346 12493
L13280 12560
L13213 12599
L13174 12613
L13147 12613
L13107 12599
L13081 12573
L13068 12533
L13068 12507
L13081 12467
L13121 12400
L13187 12334
L13253 12294
L13293 12281
L13319 12281
L13359 12294
" />
<path d="M13545 12480
L13717 12652
L13518 12666
L13558 12705
L13571 12745
L13571 12772
L13558 12811
L13492 12878
L13452 12891
L13426 12891
L13386 12878
L13306 12798
L13293 12758
L13293 12732
" />
</g>
<g style="fill:#73F0FF; fill-opacity:0.0; 
stroke:#73F0FF; stroke-width:40; stroke-opacity:1; 
stroke-linecap:round; stroke-linejoin:round;">
<g transform="rotate(-90 12741.3 20735.4)">
<text x="12741.3" y="20935.4"
textLength="1962.49" font-size="533.333" lengthAdjust="spacingAndGlyphs"
text-anchor="middle" opacity="0">RV201</text>
</g>
<path d="M12922 21354
L12731 21487
" />
<path d="M12922 21583
L12522 21583
L12522 21430
L12541 21392
L12560 21373
L12598 21354
L12655 21354
L12693 21373
L12712 21392
L12731 21430
L12731 21583
" />
<path d="M12522 21240
L12922 21106
L12522 20973
" />
<path d="M12560 20859
L12541 20840
L12522 20802
L12522 20706
L12541 20668
L12560 20649
L12598 20630
L12636 20630
L12693 20649
L12922 20878
L12922 20630
" />
<path d="M12522 20383
L12522 20344
L12541 20306
L12560 20287
L12598 20268
L12674 20249
L12769 20249
L12846 20268
L12884 20287
L12903 20306
L12922 20344
L12922 20383
L12903 20421
L12884 20440
L12846 20459
L12769 20478
L12674 20478
L12598 20459
L12560 20440
L12541 20421
L12522 20383
" />
<path d="M12922 19868
L12922 20097
" />
<path d="M12922 19983
L12522 19983
L12579 20021
L12617 20059
L12636 20097
" />
<g transform="rotate(-90 7288.58 20747.2)">
<text x="7288.58" y="20947.2"
textLength="1937.71" font-size="533.333" lengthAdjust="spacingAndGlyphs"
text-anchor="middle" opacity="0">RV301</text>
</g>
<path d="M7469 21366
L7279 21499
" />
<path d="M7469 21594
L7069 21594
L7069 21442
L7088 21404
L7107 21385
L7145 21366
L7202 21366
L7240 21385
L7260 21404
L7279 21442
L7279 21594
" />
<path d="M7069 21252
L7469 21118
L7069 20985
" />
<path d="M7069 20890
L7069 20642
L7221 20775
L7221 20718
L7240 20680
L7260 20661
L7298 20642
L7393 20642
L7431 20661
L7450 20680
L7469 20718
L7469 20832
L7450 20871
L7431 20890
" />
<path d="M7069 20394
L7069 20356
L7088 20318
L7107 20299
L7145 20280
L7221 20261
L7317 20261
L7393 20280
L7431 20299
L7450 20318
L7469 20356
L7469 20394
L7450 20432
L7431 20452
L7393 20471
L7317 20490
L7221 20490
L7145 20471
L7107 20452
L7088 20432
L7069 20394
" />
<path d="M7469 19880
L7469 20109
" />
<path d="M7469 19994
L7069 19994
L7126 20032
L7164 20071
L7183 20109
" />
<g >
</g>
</g>
<g style="fill:#000000; fill-opacity:0.0; 
stroke:#000000; stroke-width:40; stroke-opacity:1; 
stroke-linecap:round; stroke-linejoin:round;">
</g>
<g style="fill:#C2C200; fill-opacity:0.0; 
stroke:#C2C200; stroke-width:40; stroke-opacity:1; 
stroke-linecap:round; stroke-linejoin:round;">
</g>
<g style="fill:#C2C200; fill-opacity:0.0; 
stroke:#C2C200; stroke-width:39.3701; stroke-opacity:1; 
stroke-linecap:round; stroke-linejoin:round;">
<path d="M20 24180
L20 20
" />
<path d="M20380 24180
L20 24180
" />
<path d="M20380 20
L20380 24180
" />
<path d="M20 20
L20380 20
" />
<g >
</g>
<g >
</g>
<g >
</g>
<g >
</g>
<g >
</g>
<g >
</g>
<g >
</g>
<g >
</g>
<g >
</g>
<g >
</g>
<g >
</g>
<g >
</g>
<g >
</g>
<g >
</g>
<g >
</g>
<g >
</g>
<g >
</g>
<g >
</g>
<g >
</g>
<g >
</g>
<g >
</g>
<g >
</g>
<g >
</g>
</g> 
</svg>
