<?xml version="1.0" standalone="no"?>
 <!DOCTYPE svg PUBLIC "-//W3C//DTD SVG 1.1//EN" 
 "http://www.w3.org/Graphics/SVG/1.1/DTD/svg11.dtd"> 
<svg xmlns="http://www.w3.org/2000/svg" version="1.1" 
    width="4.67106cm" height="5.69214cm" viewBox="0 0 18390 22410 ">
<title>SVG Picture created as CurrentSinkOrSwim-brd.svg date 2015/03/02 21:06:16 </title>
  <desc>Picture generated by PCBNEW </desc>
<g style="fill:#000000; fill-opacity:1;stroke:#000000; stroke-opacity:1;
stroke-linecap:round; stroke-linejoin:round; "
 transform="translate(0 0) scale(1 1)">
</g>
<g style="fill:#840000; fill-opacity:0.0; 
stroke:#840000; stroke-width:39.3701; stroke-opacity:1; 
stroke-linecap:round; stroke-linejoin:round;">
</g>
<g style="fill:#840000; fill-opacity:1.0; 
stroke:#840000; stroke-width:39.3701; stroke-opacity:1; 
stroke-linecap:round; stroke-linejoin:round;">
<polyline style="fill-rule:evenodd;"
points="5820,8846
6056,8846
6056,9043
5820,9043
5820,8846
" /> 
<polyline style="fill-rule:evenodd;"
points="5820,9397
6056,9397
6056,9594
5820,9594
5820,9397
" /> 
</g>
<g style="fill:#840000; fill-opacity:1.0; 
stroke:#840000; stroke-width:591; stroke-opacity:1; 
stroke-linecap:round; stroke-linejoin:round;">
</g>
<g style="fill:#840000; fill-opacity:0.0; 
stroke:#840000; stroke-width:591; stroke-opacity:1; 
stroke-linecap:round; stroke-linejoin:round;">
<path d="M8338 6767
L8338 6374
" />
<path d="M7338 6767
L7338 6374
" />
<path d="M9338 6767
L9338 6374
" />
</g>
<g style="fill:#840000; fill-opacity:0.0; 
stroke:#840000; stroke-width:39.3701; stroke-opacity:1; 
stroke-linecap:round; stroke-linejoin:round;">
</g>
<g style="fill:#840000; fill-opacity:1.0; 
stroke:#840000; stroke-width:39.3701; stroke-opacity:1; 
stroke-linecap:round; stroke-linejoin:round;">
<polyline style="fill-rule:evenodd;"
points="6783,8840
7293,8840
7293,9151
6783,9151
6783,8840
" /> 
<polyline style="fill-rule:evenodd;"
points="6783,9590
7293,9590
7293,9901
6783,9901
6783,9590
" /> 
<polyline style="fill-rule:evenodd;"
points="5383,13990
5893,13990
5893,14301
5383,14301
5383,13990
" /> 
<polyline style="fill-rule:evenodd;"
points="5383,14740
5893,14740
5893,15051
5383,15051
5383,14740
" /> 
<polyline style="fill-rule:evenodd;"
points="2418,14615
2418,15126
2108,15126
2108,14615
2418,14615
" /> 
<polyline style="fill-rule:evenodd;"
points="1668,14615
1668,15126
1358,15126
1358,14615
1668,14615
" /> 
<polyline style="fill-rule:evenodd;"
points="1358,16076
1358,15565
1668,15565
1668,16076
1358,16076
" /> 
<polyline style="fill-rule:evenodd;"
points="2108,16076
2108,15565
2418,15565
2418,16076
2108,16076
" /> 
<polyline style="fill-rule:evenodd;"
points="6283,13990
6793,13990
6793,14301
6283,14301
6283,13990
" /> 
<polyline style="fill-rule:evenodd;"
points="6283,14740
6793,14740
6793,15051
6283,15051
6283,14740
" /> 
<polyline style="fill-rule:evenodd;"
points="11493,15751
10983,15751
10983,15440
11493,15440
11493,15751
" /> 
<polyline style="fill-rule:evenodd;"
points="11493,15001
10983,15001
10983,14690
11493,14690
11493,15001
" /> 
<polyline style="fill-rule:evenodd;"
points="6518,15365
6518,15876
6208,15876
6208,15365
6518,15365
" /> 
<polyline style="fill-rule:evenodd;"
points="5768,15365
5768,15876
5458,15876
5458,15365
5768,15365
" /> 
<polyline style="fill-rule:evenodd;"
points="3533,11890
3943,11890
3943,12051
3533,12051
3533,11890
" /> 
<polyline style="fill-rule:evenodd;"
points="3533,12390
3943,12390
3943,12551
3533,12551
3533,12390
" /> 
<polyline style="fill-rule:evenodd;"
points="3533,12890
3943,12890
3943,13051
3533,13051
3533,12890
" /> 
<polyline style="fill-rule:evenodd;"
points="3533,13390
3943,13390
3943,13551
3533,13551
3533,13390
" /> 
<polyline style="fill-rule:evenodd;"
points="1033,13390
1443,13390
1443,13551
1033,13551
1033,13390
" /> 
<polyline style="fill-rule:evenodd;"
points="1033,12890
1443,12890
1443,13051
1033,13051
1033,12890
" /> 
<polyline style="fill-rule:evenodd;"
points="1033,12390
1443,12390
1443,12551
1033,12551
1033,12390
" /> 
<polyline style="fill-rule:evenodd;"
points="1033,11890
1443,11890
1443,12051
1033,12051
1033,11890
" /> 
<polyline style="fill-rule:evenodd;"
points="9683,14040
10093,14040
10093,14201
9683,14201
9683,14040
" /> 
<polyline style="fill-rule:evenodd;"
points="9683,14540
10093,14540
10093,14701
9683,14701
9683,14540
" /> 
<polyline style="fill-rule:evenodd;"
points="9683,15040
10093,15040
10093,15201
9683,15201
9683,15040
" /> 
<polyline style="fill-rule:evenodd;"
points="9683,15540
10093,15540
10093,15701
9683,15701
9683,15540
" /> 
<polyline style="fill-rule:evenodd;"
points="7183,15540
7593,15540
7593,15701
7183,15701
7183,15540
" /> 
<polyline style="fill-rule:evenodd;"
points="7183,15040
7593,15040
7593,15201
7183,15201
7183,15040
" /> 
<polyline style="fill-rule:evenodd;"
points="7183,14540
7593,14540
7593,14701
7183,14701
7183,14540
" /> 
<polyline style="fill-rule:evenodd;"
points="7183,14040
7593,14040
7593,14201
7183,14201
7183,14040
" /> 
<polyline style="fill-rule:evenodd;"
points="15718,18376
14958,18376
14958,17615
15718,17615
15718,18376
" /> 
</g>
<g style="fill:#840000; fill-opacity:1.0; 
stroke:#840000; stroke-width:800; stroke-opacity:1; 
stroke-linecap:round; stroke-linejoin:round;">
</g>
<g style="fill:#840000; fill-opacity:0.0; 
stroke:#840000; stroke-width:800; stroke-opacity:1; 
stroke-linecap:round; stroke-linejoin:round;">
<path d="M15338 15995
L15338 15995
" />
</g>
<g style="fill:#840000; fill-opacity:0.0; 
stroke:#840000; stroke-width:39.3701; stroke-opacity:1; 
stroke-linecap:round; stroke-linejoin:round;">
</g>
<g style="fill:#840000; fill-opacity:1.0; 
stroke:#840000; stroke-width:39.3701; stroke-opacity:1; 
stroke-linecap:round; stroke-linejoin:round;">
<polyline style="fill-rule:evenodd;"
points="15718,14276
14958,14276
14958,13515
15718,13515
15718,14276
" /> 
</g>
<g style="fill:#840000; fill-opacity:1.0; 
stroke:#840000; stroke-width:800; stroke-opacity:1; 
stroke-linecap:round; stroke-linejoin:round;">
</g>
<g style="fill:#840000; fill-opacity:0.0; 
stroke:#840000; stroke-width:800; stroke-opacity:1; 
stroke-linecap:round; stroke-linejoin:round;">
<path d="M15338 11895
L15338 11895
" />
</g>
<g style="fill:#840000; fill-opacity:0.0; 
stroke:#840000; stroke-width:39.3701; stroke-opacity:1; 
stroke-linecap:round; stroke-linejoin:round;">
</g>
<g style="fill:#840000; fill-opacity:1.0; 
stroke:#840000; stroke-width:39.3701; stroke-opacity:1; 
stroke-linecap:round; stroke-linejoin:round;">
<polyline style="fill-rule:evenodd;"
points="13393,16791
12633,16791
12633,16150
13393,16150
13393,16791
" /> 
</g>
<g style="fill:#840000; fill-opacity:1.0; 
stroke:#840000; stroke-width:680; stroke-opacity:1; 
stroke-linecap:round; stroke-linejoin:round;">
</g>
<g style="fill:#840000; fill-opacity:0.0; 
stroke:#840000; stroke-width:680; stroke-opacity:1; 
stroke-linecap:round; stroke-linejoin:round;">
<path d="M12953 15470
L13073 15470
" />
<path d="M12953 14470
L13073 14470
" />
</g>
<g style="fill:#840000; fill-opacity:0.0; 
stroke:#840000; stroke-width:39.3701; stroke-opacity:1; 
stroke-linecap:round; stroke-linejoin:round;">
</g>
<g style="fill:#840000; fill-opacity:1.0; 
stroke:#840000; stroke-width:39.3701; stroke-opacity:1; 
stroke-linecap:round; stroke-linejoin:round;">
<circle cx="9672.76" cy="18620.8" r="374.016" /> 
<circle cx="8688.5" cy="18620.8" r="374.016" /> 
<circle cx="7704.25" cy="18620.8" r="374.016" /> 
<circle cx="4122.76" cy="18720.8" r="374.016" /> 
<circle cx="3138.5" cy="18720.8" r="374.016" /> 
<circle cx="2154.25" cy="18720.8" r="374.016" /> 
<circle cx="9392.71" cy="10050" r="373.815" /> 
<circle cx="10785" cy="11442.3" r="373.815" /> 
</g>
<g style="fill:#C2C2C2; fill-opacity:1.0; 
stroke:#C2C2C2; stroke-width:39.3701; stroke-opacity:1; 
stroke-linecap:round; stroke-linejoin:round;">
<circle cx="4988.5" cy="11970.8" r="205.315" /> 
<circle cx="7488.5" cy="13170.8" r="205.315" /> 
<circle cx="8638.5" cy="14870.8" r="205.315" /> 
<circle cx="6088.5" cy="16370.8" r="205.315" /> 
<circle cx="1338.5" cy="14020.8" r="205.315" /> 
<circle cx="3088.5" cy="15820.8" r="205.315" /> 
<circle cx="10888.5" cy="13070.8" r="205.315" /> 
<circle cx="3688.5" cy="14070.8" r="155.315" /> 
<circle cx="4488.5" cy="15570.8" r="155.315" /> 
<circle cx="2988.5" cy="14420.8" r="155.315" /> 
</g>
<g style="fill:#840000; fill-opacity:1.0; 
stroke:#840000; stroke-width:240; stroke-opacity:1; 
stroke-linecap:round; stroke-linejoin:round;">
</g>
<g style="fill:#840000; fill-opacity:0.0; 
stroke:#840000; stroke-width:240; stroke-opacity:1; 
stroke-linecap:round; stroke-linejoin:round;">
<path d="M5688 14095
L5638 14145
" />
<path d="M6663 14270
L6538 14145
" />
<path d="M4988 11970
L3738 11970
" />
<path d="M5638 14145
L6538 14145
" />
<path d="M7363 14145
L7388 14120
" />
<path d="M5638 14145
L7363 14145
" />
<path d="M7388 13270
L7488 13170
" />
<path d="M7388 14120
L7388 13270
" />
<path d="M9888 14620
L8888 14620
" />
<path d="M8388 15120
L8638 14870
" />
<path d="M7388 15120
L8388 15120
" />
<path d="M8388 14620
L7388 14620
" />
<path d="M8388 14620
L8638 14870
" />
<path d="M8888 15120
L8638 14870
" />
<path d="M9888 15120
L8888 15120
" />
<path d="M8888 14620
L8638 14870
" />
<path d="M5613 15620
L5613 15895
" />
<path d="M5613 15895
L6088 16370
" />
<path d="M9888 14620
L11013 14620
" />
<path d="M11013 14620
L11238 14845
" />
<path d="M1238 13470
L1238 13920
" />
<path d="M1238 13920
L1338 14020
" />
<path d="M2263 15820
L3088 15820
" />
<path d="M5613 15620
L5613 15845
" />
<path d="M9878 14610
L9888 14620
" />
<path d="M11338 14120
L9888 14120
" />
<path d="M11788 14120
L11338 14120
" />
<path d="M12038 14370
L11788 14120
" />
<path d="M12038 14770
L12038 14370
" />
<path d="M12738 15470
L12038 14770
" />
<path d="M13013 15470
L12738 15470
" />
<path d="M10888 13070
L10838 13120
" />
<path d="M10838 13120
L10838 13620
" />
<path d="M10838 13620
L11338 14120
" />
</g>
<g style="fill:#840000; fill-opacity:0.0; 
stroke:#840000; stroke-width:100; stroke-opacity:1; 
stroke-linecap:round; stroke-linejoin:round;">
<path d="M7038 8995
L7038 8120
" />
<path d="M6688 7770
L6688 7220
" />
<path d="M7038 8120
L6688 7770
" />
<path d="M5938 7970
L6688 7220
" />
<path d="M6688 7220
L7338 6570
" />
<path d="M5938 8945
L5938 7970
" />
<path d="M5938 9496
L5938 9570
" />
<path d="M5938 9620
L5138 10420
" />
<path d="M5138 10420
L1838 10420
" />
<path d="M1838 10420
L1238 11020
" />
<path d="M1238 11020
L1238 11970
" />
<path d="M5938 9496
L5938 9620
" />
</g>
<g style="fill:#840000; fill-opacity:0.0; 
stroke:#840000; stroke-width:240; stroke-opacity:1; 
stroke-linecap:round; stroke-linejoin:round;">
<path d="M14538 17995
L13013 16470
" />
<path d="M15338 17995
L14538 17995
" />
<path d="M15338 13895
L15338 13320
" />
<path d="M8338 5920
L8338 6570
" />
<path d="M8638 5620
L8338 5920
" />
<path d="M10238 5620
L8638 5620
" />
<path d="M10838 6220
L10238 5620
" />
<path d="M10838 9570
L10838 6220
" />
<path d="M11788 10520
L11408 10140
" />
<path d="M11188 9920
L10838 9570
" />
<path d="M12538 10520
L11788 10520
" />
<path d="M15338 13320
L12538 10520
" />
<path d="M14763 14470
L15338 13895
" />
<path d="M13013 14470
L14763 14470
" />
<path d="M11314 10046
L11137 10046
" />
<path d="M11408 10140
L11314 10046
" />
<path d="M11314 10046
L11188 9920
" />
<path d="M3947 14870
L2678 14870
" />
<path d="M7022 11795
L3947 14870
" />
<path d="M9388 11795
L7022 11795
" />
<path d="M2678 14870
L2263 14870
" />
<path d="M11137 10046
L9388 11795
" />
<path d="M9338 9995
L9392 10049
" />
<path d="M9338 6570
L9338 9995
" />
<path d="M8259 10049
L5338 12970
" />
<path d="M5338 12970
L3738 12970
" />
<path d="M9392 10049
L8259 10049
" />
</g>
<g style="fill:#840000; fill-opacity:0.0; 
stroke:#840000; stroke-width:100; stroke-opacity:1; 
stroke-linecap:round; stroke-linejoin:round;">
<path d="M5338 12470
L7038 10770
" />
<path d="M7038 10770
L7038 9745
" />
<path d="M3738 12470
L5338 12470
" />
<path d="M7338 15670
L7388 15620
" />
<path d="M6613 14970
L6538 14895
" />
<path d="M6363 15620
L7388 15620
" />
<path d="M6613 14970
L6538 14895
" />
<path d="M6363 15620
L6613 14970
" />
<path d="M9888 15620
L11213 15620
" />
<path d="M11213 15620
L11238 15595
" />
<path d="M9913 15595
L9888 15620
" />
<path d="M3688 14070
L3738 14020
" />
<path d="M3738 14020
L3738 13470
" />
<path d="M5163 14895
L4488 15570
" />
<path d="M5638 14895
L5163 14895
" />
<path d="M1238 12970
L888 12970
" />
<path d="M838 14420
L2988 14420
" />
<path d="M738 14320
L838 14420
" />
<path d="M738 13120
L738 14320
" />
<path d="M888 12970
L738 13120
" />
<path d="M1238 12970
L1088 12970
" />
<path d="M1563 15770
L1513 15820
" />
<path d="M988 15820
L488 15320
" />
<path d="M488 15320
L488 12770
" />
<path d="M488 12770
L788 12470
" />
<path d="M788 12470
L1238 12470
" />
<path d="M1513 15820
L988 15820
" />
<path d="M1513 14870
L1513 15820
" />
</g>
<g style="fill:#FFFFFF; fill-opacity:0.0; 
stroke:#FFFFFF; stroke-width:39.3701; stroke-opacity:1; 
stroke-linecap:round; stroke-linejoin:round;">
</g>
<g style="fill:#FFFFFF; fill-opacity:1.0; 
stroke:#FFFFFF; stroke-width:39.3701; stroke-opacity:1; 
stroke-linecap:round; stroke-linejoin:round;">
<circle cx="4988.5" cy="11970.8" r="130.315" /> 
<circle cx="7488.5" cy="13170.8" r="130.315" /> 
<circle cx="8638.5" cy="14870.8" r="130.315" /> 
<circle cx="6088.5" cy="16370.8" r="130.315" /> 
<circle cx="1338.5" cy="14020.8" r="130.315" /> 
<circle cx="3088.5" cy="15820.8" r="130.315" /> 
<circle cx="10888.5" cy="13070.8" r="130.315" /> 
<circle cx="3688.5" cy="14070.8" r="105.315" /> 
<circle cx="4488.5" cy="15570.8" r="105.315" /> 
<circle cx="2988.5" cy="14420.8" r="105.315" /> 
<circle cx="8338.5" cy="6570.79" r="177.315" /> 
<circle cx="7338.5" cy="6570.79" r="177.315" /> 
<circle cx="9338.5" cy="6570.79" r="177.315" /> 
<circle cx="3338.5" cy="5070.79" r="435.315" /> 
<circle cx="13338.5" cy="5070.79" r="435.315" /> 
<circle cx="15338.5" cy="17995.8" r="180.315" /> 
<circle cx="15338.5" cy="15995.8" r="180.315" /> 
<circle cx="15338.5" cy="13895.8" r="180.315" /> 
<circle cx="15338.5" cy="11895.8" r="180.315" /> 
<circle cx="13013.5" cy="16470.8" r="180.315" /> 
<circle cx="13013.5" cy="15470.8" r="180.315" /> 
<circle cx="13013.5" cy="14470.8" r="180.315" /> 
<circle cx="9672.76" cy="18620.8" r="177.165" /> 
<circle cx="8688.5" cy="18620.8" r="177.165" /> 
<circle cx="7704.25" cy="18620.8" r="177.165" /> 
</g>
<g style="fill:#FFFFFF; fill-opacity:1.0; 
stroke:#FFFFFF; stroke-width:787.401; stroke-opacity:1; 
stroke-linecap:round; stroke-linejoin:round;">
</g>
<g style="fill:#FFFFFF; fill-opacity:0.0; 
stroke:#FFFFFF; stroke-width:787.401; stroke-opacity:1; 
stroke-linecap:round; stroke-linejoin:round;">
<path d="M10696 17282
L10696 17360
" />
<path d="M6680 17282
L6680 17360
" />
</g>
<g style="fill:#FFFFFF; fill-opacity:0.0; 
stroke:#FFFFFF; stroke-width:39.3701; stroke-opacity:1; 
stroke-linecap:round; stroke-linejoin:round;">
</g>
<g style="fill:#FFFFFF; fill-opacity:1.0; 
stroke:#FFFFFF; stroke-width:39.3701; stroke-opacity:1; 
stroke-linecap:round; stroke-linejoin:round;">
<circle cx="4122.76" cy="18720.8" r="177.165" /> 
<circle cx="3138.5" cy="18720.8" r="177.165" /> 
<circle cx="2154.25" cy="18720.8" r="177.165" /> 
</g>
<g style="fill:#FFFFFF; fill-opacity:1.0; 
stroke:#FFFFFF; stroke-width:787.401; stroke-opacity:1; 
stroke-linecap:round; stroke-linejoin:round;">
</g>
<g style="fill:#FFFFFF; fill-opacity:0.0; 
stroke:#FFFFFF; stroke-width:787.401; stroke-opacity:1; 
stroke-linecap:round; stroke-linejoin:round;">
<path d="M5146 17382
L5146 17460
" />
<path d="M1130 17382
L1130 17460
" />
</g>
<g style="fill:#FFFFFF; fill-opacity:0.0; 
stroke:#FFFFFF; stroke-width:39.3701; stroke-opacity:1; 
stroke-linecap:round; stroke-linejoin:round;">
</g>
<g style="fill:#FFFFFF; fill-opacity:1.0; 
stroke:#FFFFFF; stroke-width:39.3701; stroke-opacity:1; 
stroke-linecap:round; stroke-linejoin:round;">
<circle cx="9392.71" cy="10050" r="177.315" /> 
<circle cx="10785" cy="11442.3" r="177.315" /> 
</g>
<g style="fill:#840000; fill-opacity:1.0; 
stroke:#840000; stroke-width:39.3701; stroke-opacity:1; 
stroke-linecap:round; stroke-linejoin:round;">
<polyline style="fill-rule:evenodd;"
points="5820,8846
6056,8846
6056,9043
5820,9043
5820,8846
" /> 
<polyline style="fill-rule:evenodd;"
points="5820,9397
6056,9397
6056,9594
5820,9594
5820,9397
" /> 
</g>
<g style="fill:#840000; fill-opacity:1.0; 
stroke:#840000; stroke-width:591; stroke-opacity:1; 
stroke-linecap:round; stroke-linejoin:round;">
</g>
<g style="fill:#840000; fill-opacity:0.0; 
stroke:#840000; stroke-width:591; stroke-opacity:1; 
stroke-linecap:round; stroke-linejoin:round;">
<path d="M8338 6767
L8338 6374
" />
<path d="M7338 6767
L7338 6374
" />
<path d="M9338 6767
L9338 6374
" />
</g>
<g style="fill:#840000; fill-opacity:0.0; 
stroke:#840000; stroke-width:39.3701; stroke-opacity:1; 
stroke-linecap:round; stroke-linejoin:round;">
</g>
<g style="fill:#840000; fill-opacity:1.0; 
stroke:#840000; stroke-width:39.3701; stroke-opacity:1; 
stroke-linecap:round; stroke-linejoin:round;">
<polyline style="fill-rule:evenodd;"
points="6783,8840
7293,8840
7293,9151
6783,9151
6783,8840
" /> 
<polyline style="fill-rule:evenodd;"
points="6783,9590
7293,9590
7293,9901
6783,9901
6783,9590
" /> 
<polyline style="fill-rule:evenodd;"
points="5383,13990
5893,13990
5893,14301
5383,14301
5383,13990
" /> 
<polyline style="fill-rule:evenodd;"
points="5383,14740
5893,14740
5893,15051
5383,15051
5383,14740
" /> 
<polyline style="fill-rule:evenodd;"
points="2418,14615
2418,15126
2108,15126
2108,14615
2418,14615
" /> 
<polyline style="fill-rule:evenodd;"
points="1668,14615
1668,15126
1358,15126
1358,14615
1668,14615
" /> 
<polyline style="fill-rule:evenodd;"
points="1358,16076
1358,15565
1668,15565
1668,16076
1358,16076
" /> 
<polyline style="fill-rule:evenodd;"
points="2108,16076
2108,15565
2418,15565
2418,16076
2108,16076
" /> 
<polyline style="fill-rule:evenodd;"
points="6283,13990
6793,13990
6793,14301
6283,14301
6283,13990
" /> 
<polyline style="fill-rule:evenodd;"
points="6283,14740
6793,14740
6793,15051
6283,15051
6283,14740
" /> 
<polyline style="fill-rule:evenodd;"
points="11493,15751
10983,15751
10983,15440
11493,15440
11493,15751
" /> 
<polyline style="fill-rule:evenodd;"
points="11493,15001
10983,15001
10983,14690
11493,14690
11493,15001
" /> 
<polyline style="fill-rule:evenodd;"
points="6518,15365
6518,15876
6208,15876
6208,15365
6518,15365
" /> 
<polyline style="fill-rule:evenodd;"
points="5768,15365
5768,15876
5458,15876
5458,15365
5768,15365
" /> 
<polyline style="fill-rule:evenodd;"
points="3533,11890
3943,11890
3943,12051
3533,12051
3533,11890
" /> 
<polyline style="fill-rule:evenodd;"
points="3533,12390
3943,12390
3943,12551
3533,12551
3533,12390
" /> 
<polyline style="fill-rule:evenodd;"
points="3533,12890
3943,12890
3943,13051
3533,13051
3533,12890
" /> 
<polyline style="fill-rule:evenodd;"
points="3533,13390
3943,13390
3943,13551
3533,13551
3533,13390
" /> 
<polyline style="fill-rule:evenodd;"
points="1033,13390
1443,13390
1443,13551
1033,13551
1033,13390
" /> 
<polyline style="fill-rule:evenodd;"
points="1033,12890
1443,12890
1443,13051
1033,13051
1033,12890
" /> 
<polyline style="fill-rule:evenodd;"
points="1033,12390
1443,12390
1443,12551
1033,12551
1033,12390
" /> 
<polyline style="fill-rule:evenodd;"
points="1033,11890
1443,11890
1443,12051
1033,12051
1033,11890
" /> 
<polyline style="fill-rule:evenodd;"
points="9683,14040
10093,14040
10093,14201
9683,14201
9683,14040
" /> 
<polyline style="fill-rule:evenodd;"
points="9683,14540
10093,14540
10093,14701
9683,14701
9683,14540
" /> 
<polyline style="fill-rule:evenodd;"
points="9683,15040
10093,15040
10093,15201
9683,15201
9683,15040
" /> 
<polyline style="fill-rule:evenodd;"
points="9683,15540
10093,15540
10093,15701
9683,15701
9683,15540
" /> 
<polyline style="fill-rule:evenodd;"
points="7183,15540
7593,15540
7593,15701
7183,15701
7183,15540
" /> 
<polyline style="fill-rule:evenodd;"
points="7183,15040
7593,15040
7593,15201
7183,15201
7183,15040
" /> 
<polyline style="fill-rule:evenodd;"
points="7183,14540
7593,14540
7593,14701
7183,14701
7183,14540
" /> 
<polyline style="fill-rule:evenodd;"
points="7183,14040
7593,14040
7593,14201
7183,14201
7183,14040
" /> 
<circle cx="3338.5" cy="5070.79" r="435.315" /> 
<circle cx="13338.5" cy="5070.79" r="435.315" /> 
<polyline style="fill-rule:evenodd;"
points="15718,18376
14958,18376
14958,17615
15718,17615
15718,18376
" /> 
</g>
<g style="fill:#840000; fill-opacity:1.0; 
stroke:#840000; stroke-width:800; stroke-opacity:1; 
stroke-linecap:round; stroke-linejoin:round;">
</g>
<g style="fill:#840000; fill-opacity:0.0; 
stroke:#840000; stroke-width:800; stroke-opacity:1; 
stroke-linecap:round; stroke-linejoin:round;">
<path d="M15338 15995
L15338 15995
" />
</g>
<g style="fill:#840000; fill-opacity:0.0; 
stroke:#840000; stroke-width:39.3701; stroke-opacity:1; 
stroke-linecap:round; stroke-linejoin:round;">
</g>
<g style="fill:#840000; fill-opacity:1.0; 
stroke:#840000; stroke-width:39.3701; stroke-opacity:1; 
stroke-linecap:round; stroke-linejoin:round;">
<polyline style="fill-rule:evenodd;"
points="15718,14276
14958,14276
14958,13515
15718,13515
15718,14276
" /> 
</g>
<g style="fill:#840000; fill-opacity:1.0; 
stroke:#840000; stroke-width:800; stroke-opacity:1; 
stroke-linecap:round; stroke-linejoin:round;">
</g>
<g style="fill:#840000; fill-opacity:0.0; 
stroke:#840000; stroke-width:800; stroke-opacity:1; 
stroke-linecap:round; stroke-linejoin:round;">
<path d="M15338 11895
L15338 11895
" />
</g>
<g style="fill:#840000; fill-opacity:0.0; 
stroke:#840000; stroke-width:39.3701; stroke-opacity:1; 
stroke-linecap:round; stroke-linejoin:round;">
</g>
<g style="fill:#840000; fill-opacity:1.0; 
stroke:#840000; stroke-width:39.3701; stroke-opacity:1; 
stroke-linecap:round; stroke-linejoin:round;">
<polyline style="fill-rule:evenodd;"
points="13393,16791
12633,16791
12633,16150
13393,16150
13393,16791
" /> 
</g>
<g style="fill:#840000; fill-opacity:1.0; 
stroke:#840000; stroke-width:680; stroke-opacity:1; 
stroke-linecap:round; stroke-linejoin:round;">
</g>
<g style="fill:#840000; fill-opacity:0.0; 
stroke:#840000; stroke-width:680; stroke-opacity:1; 
stroke-linecap:round; stroke-linejoin:round;">
<path d="M12953 15470
L13073 15470
" />
<path d="M12953 14470
L13073 14470
" />
</g>
<g style="fill:#840000; fill-opacity:0.0; 
stroke:#840000; stroke-width:39.3701; stroke-opacity:1; 
stroke-linecap:round; stroke-linejoin:round;">
</g>
<g style="fill:#840000; fill-opacity:1.0; 
stroke:#840000; stroke-width:39.3701; stroke-opacity:1; 
stroke-linecap:round; stroke-linejoin:round;">
<circle cx="9672.76" cy="18620.8" r="374.016" /> 
<circle cx="8688.5" cy="18620.8" r="374.016" /> 
<circle cx="7704.25" cy="18620.8" r="374.016" /> 
</g>
<g style="fill:#840000; fill-opacity:1.0; 
stroke:#840000; stroke-width:787.402; stroke-opacity:1; 
stroke-linecap:round; stroke-linejoin:round;">
</g>
<g style="fill:#840000; fill-opacity:0.0; 
stroke:#840000; stroke-width:787.402; stroke-opacity:1; 
stroke-linecap:round; stroke-linejoin:round;">
<path d="M10696 17282
L10696 17360
" />
<path d="M6680 17282
L6680 17360
" />
</g>
<g style="fill:#840000; fill-opacity:0.0; 
stroke:#840000; stroke-width:39.3701; stroke-opacity:1; 
stroke-linecap:round; stroke-linejoin:round;">
</g>
<g style="fill:#840000; fill-opacity:1.0; 
stroke:#840000; stroke-width:39.3701; stroke-opacity:1; 
stroke-linecap:round; stroke-linejoin:round;">
<circle cx="4122.76" cy="18720.8" r="374.016" /> 
<circle cx="3138.5" cy="18720.8" r="374.016" /> 
<circle cx="2154.25" cy="18720.8" r="374.016" /> 
</g>
<g style="fill:#840000; fill-opacity:1.0; 
stroke:#840000; stroke-width:787.402; stroke-opacity:1; 
stroke-linecap:round; stroke-linejoin:round;">
</g>
<g style="fill:#840000; fill-opacity:0.0; 
stroke:#840000; stroke-width:787.402; stroke-opacity:1; 
stroke-linecap:round; stroke-linejoin:round;">
<path d="M5146 17382
L5146 17460
" />
<path d="M1130 17382
L1130 17460
" />
</g>
<g style="fill:#840000; fill-opacity:0.0; 
stroke:#840000; stroke-width:39.3701; stroke-opacity:1; 
stroke-linecap:round; stroke-linejoin:round;">
</g>
<g style="fill:#840000; fill-opacity:1.0; 
stroke:#840000; stroke-width:39.3701; stroke-opacity:1; 
stroke-linecap:round; stroke-linejoin:round;">
<circle cx="9392.71" cy="10050" r="373.815" /> 
<circle cx="10785" cy="11442.3" r="373.815" /> 
</g>
<g style="fill:#840000; fill-opacity:1.0; 
stroke:#840000; stroke-width:39.3701; stroke-opacity:1; 
stroke-linecap:round; stroke-linejoin:round;">
<polyline style="fill-rule:evenodd;"
points="5820,8846
6056,8846
6056,9043
5820,9043
5820,8846
" /> 
<polyline style="fill-rule:evenodd;"
points="5820,9397
6056,9397
6056,9594
5820,9594
5820,9397
" /> 
<polyline style="fill-rule:evenodd;"
points="6783,8840
7293,8840
7293,9151
6783,9151
6783,8840
" /> 
<polyline style="fill-rule:evenodd;"
points="6783,9590
7293,9590
7293,9901
6783,9901
6783,9590
" /> 
<polyline style="fill-rule:evenodd;"
points="5383,13990
5893,13990
5893,14301
5383,14301
5383,13990
" /> 
<polyline style="fill-rule:evenodd;"
points="5383,14740
5893,14740
5893,15051
5383,15051
5383,14740
" /> 
<polyline style="fill-rule:evenodd;"
points="2418,14615
2418,15126
2108,15126
2108,14615
2418,14615
" /> 
<polyline style="fill-rule:evenodd;"
points="1668,14615
1668,15126
1358,15126
1358,14615
1668,14615
" /> 
<polyline style="fill-rule:evenodd;"
points="1358,16076
1358,15565
1668,15565
1668,16076
1358,16076
" /> 
<polyline style="fill-rule:evenodd;"
points="2108,16076
2108,15565
2418,15565
2418,16076
2108,16076
" /> 
<polyline style="fill-rule:evenodd;"
points="6283,13990
6793,13990
6793,14301
6283,14301
6283,13990
" /> 
<polyline style="fill-rule:evenodd;"
points="6283,14740
6793,14740
6793,15051
6283,15051
6283,14740
" /> 
<polyline style="fill-rule:evenodd;"
points="11493,15751
10983,15751
10983,15440
11493,15440
11493,15751
" /> 
<polyline style="fill-rule:evenodd;"
points="11493,15001
10983,15001
10983,14690
11493,14690
11493,15001
" /> 
<polyline style="fill-rule:evenodd;"
points="6518,15365
6518,15876
6208,15876
6208,15365
6518,15365
" /> 
<polyline style="fill-rule:evenodd;"
points="5768,15365
5768,15876
5458,15876
5458,15365
5768,15365
" /> 
<polyline style="fill-rule:evenodd;"
points="3533,11890
3943,11890
3943,12051
3533,12051
3533,11890
" /> 
<polyline style="fill-rule:evenodd;"
points="3533,12390
3943,12390
3943,12551
3533,12551
3533,12390
" /> 
<polyline style="fill-rule:evenodd;"
points="3533,12890
3943,12890
3943,13051
3533,13051
3533,12890
" /> 
<polyline style="fill-rule:evenodd;"
points="3533,13390
3943,13390
3943,13551
3533,13551
3533,13390
" /> 
<polyline style="fill-rule:evenodd;"
points="1033,13390
1443,13390
1443,13551
1033,13551
1033,13390
" /> 
<polyline style="fill-rule:evenodd;"
points="1033,12890
1443,12890
1443,13051
1033,13051
1033,12890
" /> 
<polyline style="fill-rule:evenodd;"
points="1033,12390
1443,12390
1443,12551
1033,12551
1033,12390
" /> 
<polyline style="fill-rule:evenodd;"
points="1033,11890
1443,11890
1443,12051
1033,12051
1033,11890
" /> 
<polyline style="fill-rule:evenodd;"
points="9683,14040
10093,14040
10093,14201
9683,14201
9683,14040
" /> 
<polyline style="fill-rule:evenodd;"
points="9683,14540
10093,14540
10093,14701
9683,14701
9683,14540
" /> 
<polyline style="fill-rule:evenodd;"
points="9683,15040
10093,15040
10093,15201
9683,15201
9683,15040
" /> 
<polyline style="fill-rule:evenodd;"
points="9683,15540
10093,15540
10093,15701
9683,15701
9683,15540
" /> 
<polyline style="fill-rule:evenodd;"
points="7183,15540
7593,15540
7593,15701
7183,15701
7183,15540
" /> 
<polyline style="fill-rule:evenodd;"
points="7183,15040
7593,15040
7593,15201
7183,15201
7183,15040
" /> 
<polyline style="fill-rule:evenodd;"
points="7183,14540
7593,14540
7593,14701
7183,14701
7183,14540
" /> 
<polyline style="fill-rule:evenodd;"
points="7183,14040
7593,14040
7593,14201
7183,14201
7183,14040
" /> 
</g>
<g style="fill:#C2C2C2; fill-opacity:0.0; 
stroke:#C2C2C2; stroke-width:118.11; stroke-opacity:1; 
stroke-linecap:round; stroke-linejoin:round;">
<path d="M5771 3534
L5743 3562
L5659 3590
L5602 3590
L5518 3562
L5462 3506
L5434 3449
L5406 3337
L5406 3253
L5434 3140
L5462 3084
L5518 3028
L5602 2999
L5659 2999
L5743 3028
L5771 3056
" />
<path d="M6277 3196
L6277 3590
" />
<path d="M6024 3196
L6024 3506
L6052 3562
L6109 3590
L6193 3590
L6249 3562
L6277 3534
" />
<path d="M6559 3590
L6559 3196
" />
<path d="M6559 3309
L6587 3253
L6615 3224
L6671 3196
L6727 3196
" />
<path d="M6924 3590
L6924 3196
" />
<path d="M6924 3309
L6952 3253
L6980 3224
L7037 3196
L7093 3196
" />
<path d="M7515 3562
L7458 3590
L7346 3590
L7290 3562
L7262 3506
L7262 3281
L7290 3224
L7346 3196
L7458 3196
L7515 3224
L7543 3281
L7543 3337
L7262 3393
" />
<path d="M7796 3196
L7796 3590
" />
<path d="M7796 3253
L7824 3224
L7880 3196
L7965 3196
L8021 3224
L8049 3281
L8049 3590
" />
<path d="M8246 3196
L8471 3196
" />
<path d="M8330 2999
L8330 3506
L8358 3562
L8415 3590
L8471 3590
" />
<path d="M9089 3562
L9174 3590
L9314 3590
L9371 3562
L9399 3534
L9427 3478
L9427 3421
L9399 3365
L9371 3337
L9314 3309
L9202 3281
L9146 3253
L9118 3224
L9089 3168
L9089 3112
L9118 3056
L9146 3028
L9202 2999
L9343 2999
L9427 3028
" />
<path d="M9680 3590
L9680 3196
" />
<path d="M9680 2999
L9652 3028
L9680 3056
L9708 3028
L9680 2999
L9680 3056
" />
<path d="M9961 3196
L9961 3590
" />
<path d="M9961 3253
L9989 3224
L10046 3196
L10130 3196
L10186 3224
L10214 3281
L10214 3590
" />
<path d="M10496 3590
L10496 2999
" />
<path d="M10552 3365
L10720 3590
" />
<path d="M10720 3196
L10496 3421
" />
<path d="M6713 4535
L6657 4507
L6629 4479
L6601 4422
L6601 4254
L6629 4197
L6657 4169
L6713 4141
L6798 4141
L6854 4169
L6882 4197
L6910 4254
L6910 4422
L6882 4479
L6854 4507
L6798 4535
L6713 4535
" />
<path d="M7163 4535
L7163 4141
" />
<path d="M7163 4254
L7191 4197
L7219 4169
L7276 4141
L7332 4141
" />
<path d="M7951 4507
L8035 4535
L8175 4535
L8232 4507
L8260 4479
L8288 4422
L8288 4366
L8260 4310
L8232 4282
L8175 4254
L8063 4226
L8007 4197
L7979 4169
L7951 4113
L7951 4057
L7979 4001
L8007 3972
L8063 3944
L8204 3944
L8288 3972
" />
<path d="M8485 4141
L8597 4535
L8710 4254
L8822 4535
L8935 4141
" />
<path d="M9160 4535
L9160 4141
" />
<path d="M9160 3944
L9132 3972
L9160 4001
L9188 3972
L9160 3944
L9160 4001
" />
<path d="M9441 4535
L9441 4141
" />
<path d="M9441 4197
L9469 4169
L9525 4141
L9610 4141
L9666 4169
L9694 4226
L9694 4535
" />
<path d="M9694 4226
L9722 4169
L9778 4141
L9863 4141
L9919 4169
L9947 4226
L9947 4535
" />
</g>
<g style="fill:#C2C2C2; fill-opacity:0.0; 
stroke:#C2C2C2; stroke-width:59.0551; stroke-opacity:1; 
stroke-linecap:round; stroke-linejoin:round;">
<path d="M5702 9063
L5702 9673
" />
<path d="M6174 9063
L6174 9673
" />
<path d="M7738 5370
L7738 5820
" />
<path d="M8938 5370
L8938 5820
" />
<path d="M10438 5820
L10438 7270
" />
<path d="M10438 7270
L6238 7270
" />
<path d="M6238 7270
L6238 5820
" />
<path d="M10438 5370
L10438 5820
" />
<path d="M10438 5820
L6238 5820
" />
<path d="M6238 5820
L6238 5370
" />
<path d="M8338 5370
L6238 5370
" />
<path d="M8338 5370
L10438 5370
" />
<circle cx="6738.5" cy="8720.79" r="50" /> 
<path d="M6738 9170
L6738 8770
" />
<path d="M6738 8770
L7338 8770
" />
<path d="M7338 8770
L7338 9170
" />
<path d="M7338 9570
L7338 9970
" />
<path d="M7338 9970
L6738 9970
" />
<path d="M6738 9970
L6738 9570
" />
<circle cx="5338.5" cy="13870.8" r="50" /> 
<path d="M5338 14320
L5338 13920
" />
<path d="M5338 13920
L5938 13920
" />
<path d="M5938 13920
L5938 14320
" />
<path d="M5938 14720
L5938 15120
" />
<path d="M5938 15120
L5338 15120
" />
<path d="M5338 15120
L5338 14720
" />
<circle cx="2538.5" cy="14570.8" r="50" /> 
<path d="M2088 14570
L2488 14570
" />
<path d="M2488 14570
L2488 15170
" />
<path d="M2488 15170
L2088 15170
" />
<path d="M1688 15170
L1288 15170
" />
<path d="M1288 15170
L1288 14570
" />
<path d="M1288 14570
L1688 14570
" />
<circle cx="1238.5" cy="16120.8" r="50" /> 
<path d="M1688 16120
L1288 16120
" />
<path d="M1288 16120
L1288 15520
" />
<path d="M1288 15520
L1688 15520
" />
<path d="M2088 15520
L2488 15520
" />
<path d="M2488 15520
L2488 16120
" />
<path d="M2488 16120
L2088 16120
" />
<circle cx="6238.5" cy="13870.8" r="50" /> 
<path d="M6238 14320
L6238 13920
" />
<path d="M6238 13920
L6838 13920
" />
<path d="M6838 13920
L6838 14320
" />
<path d="M6838 14720
L6838 15120
" />
<path d="M6838 15120
L6238 15120
" />
<path d="M6238 15120
L6238 14720
" />
<circle cx="11538.5" cy="15870.8" r="50" /> 
<path d="M11538 15420
L11538 15820
" />
<path d="M11538 15820
L10938 15820
" />
<path d="M10938 15820
L10938 15420
" />
<path d="M10938 15020
L10938 14620
" />
<path d="M10938 14620
L11538 14620
" />
<path d="M11538 14620
L11538 15020
" />
<circle cx="6638.5" cy="15320.8" r="50" /> 
<path d="M6188 15320
L6588 15320
" />
<path d="M6588 15320
L6588 15920
" />
<path d="M6588 15920
L6188 15920
" />
<path d="M5788 15920
L5388 15920
" />
<path d="M5388 15920
L5388 15320
" />
<path d="M5388 15320
L5788 15320
" />
<path d="M3388 11720
L3388 13720
" />
<path d="M3388 13720
L1588 13720
" />
<path d="M1588 13720
L1588 11720
" />
<path d="M1588 11720
L3388 11720
" />
<path d="M2788 11720
L2788 11920
" />
<path d="M2788 11920
L2288 11920
" />
<path d="M2288 11920
L2288 11720
" />
<path d="M9538 13870
L9538 15870
" />
<path d="M9538 15870
L7738 15870
" />
<path d="M7738 15870
L7738 13870
" />
<path d="M7738 13870
L9538 13870
" />
<path d="M8938 13870
L8938 14070
" />
<path d="M8938 14070
L8438 14070
" />
<path d="M8438 14070
L8438 13870
" />
<path d="M4992 5366
L11684 5366
" />
<path d="M11684 5366
L11684 9992
" />
<path d="M11684 9992
L16527 9992
" />
<path d="M16527 9992
L16527 149
" />
<path d="M16527 149
L11684 149
" />
<path d="M11684 149
L11684 4775
" />
<path d="M11684 4775
L4992 4775
" />
<path d="M4992 4775
L4992 149
" />
<path d="M4992 149
L149 149
" />
<path d="M149 149
L149 9992
" />
<path d="M149 9992
L4992 9992
" />
<path d="M4992 9992
L4992 5366
" />
<path d="M13763 18995
L16519 18995
" />
<path d="M16519 18995
L16519 14995
" />
<path d="M16519 14995
L13763 14995
" />
<path d="M13763 14995
L13763 18995
" />
<path d="M13763 14895
L16519 14895
" />
<path d="M16519 14895
L16519 10895
" />
<path d="M16519 10895
L13763 10895
" />
<path d="M13763 10895
L13763 14895
" />
<path d="M13513 15970
L13513 13970
" />
<path d="M13513 13970
L12513 13970
" />
<path d="M12513 13970
L12513 15970
" />
<path d="M12513 16970
L12513 15970
" />
<path d="M12513 15970
L13513 15970
" />
<path d="M12513 16970
L13513 16970
" />
<path d="M13513 16970
L13513 15970
" />
<path d="M7704 19998
L7704 22164
" />
<path d="M7704 22164
L9672 22164
" />
<path d="M9672 22164
L9672 19998
" />
<path d="M6759 19998
L10617 19998
" />
<path d="M6759 16297
L10617 16297
" />
<path d="M10617 16297
L10617 19998
" />
<path d="M6759 16297
L6759 19998
" />
<path d="M2154 20098
L2154 22264
" />
<path d="M2154 22264
L4122 22264
" />
<path d="M4122 22264
L4122 20098
" />
<path d="M1209 20098
L5067 20098
" />
<path d="M1209 16397
L5067 16397
" />
<path d="M5067 16397
L5067 20098
" />
<path d="M1209 16397
L1209 20098
" />
<path d="M10060 10718
L10339 10996
" />
<circle cx="9392.71" cy="10050" r="984" /> 
</g>
<g style="fill:#C2C2C2; fill-opacity:1.0; 
stroke:#C2C2C2; stroke-width:39.3701; stroke-opacity:1; 
stroke-linecap:round; stroke-linejoin:round;">
<polyline style="fill-rule:evenodd;"
points="10456,5430
10452,5445
10440,5449
10435,5404
10440,5356
10452,5362
10456,5430
10456,5430
" /> 
<polyline style="fill-rule:evenodd;"
points="10463,470
10460,1545
10458,1850
10455,2102
10450,2298
10445,2435
10437,2511
10429,2523
10428,2519
10353,2375
10229,2263
10068,2192
9905,2170
9797,2188
9653,2235
9533,2288
9393,2350
9299,2375
9241,2360
9208,2302
9189,2197
9188,2189
9132,1968
9019,1758
8861,1570
8669,1415
8454,1304
8271,1254
8130,1231
8130,1001
8127,875
8116,803
8095,773
8080,770
8052,784
8037,834
8030,932
8030,1001
8030,1231
7891,1254
7700,1304
7523,1389
7405,1467
7291,1570
7179,1704
7085,1848
7023,1981
7010,2026
6995,2087
6970,2116
6915,2122
6813,2113
6738,2108
6672,2112
6599,2129
6508,2164
6383,2221
6225,2298
6056,2380
5892,2457
5749,2522
5646,2565
5638,2569
5463,2636
5463,2072
5463,1508
5621,1484
5853,1423
6058,1319
6229,1179
6358,1013
6437,827
6458,631
6457,616
6446,470
8454,470
10463,470
10463,470
" /> 
<polyline style="fill-rule:evenodd;"
points="9056,2114
9043,2119
8999,2084
8940,2029
8835,1944
8740,1910
8639,1928
8515,1998
8480,2023
8373,2097
8273,2160
8221,2190
8130,2239
8130,2088
8133,1995
8150,1951
8190,1938
8213,1937
8276,1930
8296,1918
8279,1882
8236,1814
8182,1733
8128,1659
8090,1611
8080,1604
8055,1629
8008,1691
7952,1770
7901,1847
7868,1903
7863,1918
7892,1932
7946,1937
7994,1942
8019,1967
8028,2029
8030,2121
8030,2304
7842,2387
7740,2431
7664,2460
7634,2468
7597,2453
7516,2412
7406,2355
7353,2327
7229,2259
7153,2211
7115,2173
7104,2133
7109,2079
7110,2076
7137,1984
7191,1871
7231,1801
7389,1609
7578,1470
7786,1382
8007,1344
8229,1355
8444,1413
8643,1516
8817,1665
8956,1856
9046,2070
9056,2114
9056,2114
" /> 
</g>
<g style="fill:#C2C2C2; fill-opacity:0.0; 
stroke:#C2C2C2; stroke-width:59.0551; stroke-opacity:1; 
stroke-linecap:round; stroke-linejoin:round;">
<path d="M6116 11261
L5722 11261
L5722 11167
L5741 11111
L5779 11073
L5816 11055
L5891 11036
L5947 11036
L6022 11055
L6060 11073
L6097 11111
L6116 11167
L6116 11261
" />
<path d="M5722 10905
L5722 10661
L5872 10792
L5872 10736
L5891 10698
L5910 10680
L5947 10661
L6041 10661
L6079 10680
L6097 10698
L6116 10736
L6116 10848
L6097 10886
L6079 10905
" />
<path d="M5722 10417
L5722 10380
L5741 10342
L5760 10323
L5797 10305
L5872 10286
L5966 10286
L6041 10305
L6079 10323
L6097 10342
L6116 10380
L6116 10417
L6097 10455
L6079 10473
L6041 10492
L5966 10511
L5872 10511
L5797 10492
L5760 10473
L5741 10455
L5722 10417
" />
<path d="M6116 9911
L6116 10136
" />
<path d="M6116 10023
L5722 10023
L5779 10061
L5816 10098
L5835 10136
" />
<path d="M7901 7886
L7863 7867
L7826 7830
L7769 7773
L7732 7755
L7694 7755
" />
<path d="M7713 7848
L7676 7830
L7638 7792
L7619 7717
L7619 7586
L7638 7511
L7676 7473
L7713 7455
L7788 7455
L7826 7473
L7863 7511
L7882 7586
L7882 7717
L7863 7792
L7826 7830
L7788 7848
L7713 7848
" />
<path d="M8032 7492
L8051 7473
L8088 7455
L8182 7455
L8219 7473
L8238 7492
L8257 7530
L8257 7567
L8238 7623
L8013 7848
L8257 7848
" />
<path d="M8500 7455
L8538 7455
L8575 7473
L8594 7492
L8613 7530
L8632 7605
L8632 7698
L8613 7773
L8594 7811
L8575 7830
L8538 7848
L8500 7848
L8463 7830
L8444 7811
L8425 7773
L8407 7698
L8407 7605
L8425 7530
L8444 7492
L8463 7473
L8500 7455
" />
<path d="M9007 7848
L8782 7848
" />
<path d="M8894 7848
L8894 7455
L8857 7511
L8819 7548
L8782 7567
" />
<path d="M8776 6230
L8832 6248
L8926 6248
L8963 6230
L8982 6211
L9000 6173
L9000 6136
L8982 6098
L8963 6080
L8926 6061
L8851 6042
L8813 6023
L8794 6005
L8776 5967
L8776 5930
L8794 5892
L8813 5873
L8851 5855
L8944 5855
L9000 5873
" />
<path d="M7785 6248
L7785 5855
L7879 5855
L7935 5873
L7972 5911
L7991 5948
L8010 6023
L8010 6080
L7991 6155
L7972 6192
L7935 6230
L7879 6248
L7785 6248
" />
<path d="M6941 5873
L6904 5855
L6847 5855
L6791 5873
L6754 5911
L6735 5948
L6716 6023
L6716 6080
L6735 6155
L6754 6192
L6791 6230
L6847 6248
L6885 6248
L6941 6230
L6960 6211
L6960 6080
L6885 6080
" />
<path d="M7241 11236
L7054 11367
" />
<path d="M7241 11461
L6847 11461
L6847 11311
L6866 11273
L6885 11255
L6922 11236
L6979 11236
L7016 11255
L7035 11273
L7054 11311
L7054 11461
" />
<path d="M6885 11086
L6866 11067
L6847 11030
L6847 10936
L6866 10898
L6885 10880
L6922 10861
L6960 10861
L7016 10880
L7241 11105
L7241 10861
" />
<path d="M6847 10617
L6847 10580
L6866 10542
L6885 10523
L6922 10505
L6997 10486
L7091 10486
L7166 10505
L7204 10523
L7222 10542
L7241 10580
L7241 10617
L7222 10655
L7204 10673
L7166 10692
L7091 10711
L6997 10711
L6922 10692
L6885 10673
L6866 10655
L6847 10617
" />
<path d="M7241 10111
L7241 10336
" />
<path d="M7241 10223
L6847 10223
L6904 10261
L6941 10298
L6960 10336
" />
</g>
<g style="fill:#C2C2C2; fill-opacity:0.0; 
stroke:#C2C2C2; stroke-width:50; stroke-opacity:1; 
stroke-linecap:round; stroke-linejoin:round;">
<path d="M5174 14781
L5031 14881
" />
<path d="M5174 14952
L4874 14952
L4874 14838
L4888 14810
L4902 14795
L4931 14781
L4974 14781
L5002 14795
L5017 14810
L5031 14838
L5031 14952
" />
<path d="M4902 14667
L4888 14652
L4874 14624
L4874 14552
L4888 14524
L4902 14510
L4931 14495
L4959 14495
L5002 14510
L5174 14681
L5174 14495
" />
<path d="M4874 14310
L4874 14281
L4888 14252
L4902 14238
L4931 14224
L4988 14210
L5059 14210
L5117 14224
L5145 14238
L5159 14252
L5174 14281
L5174 14310
L5159 14338
L5145 14352
L5117 14367
L5059 14381
L4988 14381
L4931 14367
L4902 14352
L4888 14338
L4874 14310
" />
<path d="M4902 14095
L4888 14081
L4874 14052
L4874 13981
L4888 13952
L4902 13938
L4931 13924
L4959 13924
L5002 13938
L5174 14110
L5174 13924
" />
</g>
<g style="fill:#C2C2C2; fill-opacity:0.0; 
stroke:#C2C2C2; stroke-width:59.0551; stroke-opacity:1; 
stroke-linecap:round; stroke-linejoin:round;">
<path d="M2872 15173
L2741 14986
" />
<path d="M2647 15173
L2647 14780
L2797 14780
L2835 14798
L2854 14817
L2872 14855
L2872 14911
L2854 14948
L2835 14967
L2797 14986
L2647 14986
" />
<path d="M3004 14780
L3247 14780
L3116 14930
L3172 14930
L3210 14948
L3229 14967
L3247 15005
L3247 15098
L3229 15136
L3210 15155
L3172 15173
L3060 15173
L3022 15155
L3004 15136
" />
<path d="M3491 14780
L3529 14780
L3566 14798
L3585 14817
L3604 14855
L3622 14930
L3622 15023
L3604 15098
L3585 15136
L3566 15155
L3529 15173
L3491 15173
L3454 15155
L3435 15136
L3416 15098
L3397 15023
L3397 14930
L3416 14855
L3435 14817
L3454 14798
L3491 14780
" />
<path d="M3997 15173
L3772 15173
" />
<path d="M3885 15173
L3885 14780
L3847 14836
L3810 14873
L3772 14892
" />
</g>
<g style="fill:#C2C2C2; fill-opacity:0.0; 
stroke:#C2C2C2; stroke-width:50; stroke-opacity:1; 
stroke-linecap:round; stroke-linejoin:round;">
<path d="M999 16081
L856 16181
" />
<path d="M999 16252
L699 16252
L699 16138
L713 16110
L727 16095
L756 16081
L799 16081
L827 16095
L842 16110
L856 16138
L856 16252
" />
<path d="M699 15981
L699 15795
L813 15895
L813 15852
L827 15824
L842 15810
L870 15795
L942 15795
L970 15810
L984 15824
L999 15852
L999 15938
L984 15967
L970 15981
" />
<path d="M699 15610
L699 15581
L713 15552
L727 15538
L756 15524
L813 15510
L884 15510
L942 15524
L970 15538
L984 15552
L999 15581
L999 15610
L984 15638
L970 15652
L942 15667
L884 15681
L813 15681
L756 15667
L727 15652
L713 15638
L699 15610
" />
<path d="M699 15410
L699 15224
L813 15324
L813 15281
L827 15252
L842 15238
L870 15224
L942 15224
L970 15238
L984 15252
L999 15281
L999 15367
L984 15395
L970 15410
" />
</g>
<g style="fill:#C2C2C2; fill-opacity:0.0; 
stroke:#C2C2C2; stroke-width:59.0551; stroke-opacity:1; 
stroke-linecap:round; stroke-linejoin:round;">
<path d="M6047 13773
L5916 13586
" />
<path d="M5822 13773
L5822 13380
L5972 13380
L6010 13398
L6029 13417
L6047 13455
L6047 13511
L6029 13548
L6010 13567
L5972 13586
L5822 13586
" />
<path d="M6385 13511
L6385 13773
" />
<path d="M6291 13361
L6197 13642
L6441 13642
" />
<path d="M6666 13380
L6704 13380
L6741 13398
L6760 13417
L6779 13455
L6797 13530
L6797 13623
L6779 13698
L6760 13736
L6741 13755
L6704 13773
L6666 13773
L6629 13755
L6610 13736
L6591 13698
L6572 13623
L6572 13530
L6591 13455
L6610 13417
L6629 13398
L6666 13380
" />
<path d="M7172 13773
L6947 13773
" />
<path d="M7060 13773
L7060 13380
L7022 13436
L6985 13473
L6947 13492
" />
</g>
<g style="fill:#C2C2C2; fill-opacity:0.0; 
stroke:#C2C2C2; stroke-width:50; stroke-opacity:1; 
stroke-linecap:round; stroke-linejoin:round;">
<path d="M12124 15556
L11981 15656
" />
<path d="M12124 15727
L11824 15727
L11824 15613
L11838 15585
L11852 15570
L11881 15556
L11924 15556
L11952 15570
L11967 15585
L11981 15613
L11981 15727
" />
<path d="M11924 15299
L12124 15299
" />
<path d="M11809 15370
L12024 15442
L12024 15256
" />
<path d="M11824 15085
L11824 15056
L11838 15027
L11852 15013
L11881 14999
L11938 14985
L12009 14985
L12067 14999
L12095 15013
L12109 15027
L12124 15056
L12124 15085
L12109 15113
L12095 15127
L12067 15142
L12009 15156
L11938 15156
L11881 15142
L11852 15127
L11838 15113
L11824 15085
" />
<path d="M11852 14870
L11838 14856
L11824 14827
L11824 14756
L11838 14727
L11852 14713
L11881 14699
L11909 14699
L11952 14713
L12124 14885
L12124 14699
" />
<path d="M5274 16056
L5131 16156
" />
<path d="M5274 16227
L4974 16227
L4974 16113
L4988 16085
L5002 16070
L5031 16056
L5074 16056
L5102 16070
L5117 16085
L5131 16113
L5131 16227
" />
<path d="M5074 15799
L5274 15799
" />
<path d="M4959 15870
L5174 15942
L5174 15756
" />
<path d="M4974 15585
L4974 15556
L4988 15527
L5002 15513
L5031 15499
L5088 15485
L5159 15485
L5217 15499
L5245 15513
L5259 15527
L5274 15556
L5274 15585
L5259 15613
L5245 15627
L5217 15642
L5159 15656
L5088 15656
L5031 15642
L5002 15627
L4988 15613
L4974 15585
" />
<path d="M4974 15385
L4974 15199
L5088 15299
L5088 15256
L5102 15227
L5117 15213
L5145 15199
L5217 15199
L5245 15213
L5259 15227
L5274 15256
L5274 15342
L5259 15370
L5245 15385
" />
</g>
<g style="fill:#C2C2C2; fill-opacity:0.0; 
stroke:#C2C2C2; stroke-width:59.0551; stroke-opacity:1; 
stroke-linecap:round; stroke-linejoin:round;">
<path d="M1763 11105
L1763 11423
L1782 11461
L1801 11480
L1838 11498
L1913 11498
L1951 11480
L1969 11461
L1988 11423
L1988 11105
" />
<path d="M2157 11142
L2176 11123
L2213 11105
L2307 11105
L2344 11123
L2363 11142
L2382 11180
L2382 11217
L2363 11273
L2138 11498
L2382 11498
" />
<path d="M2625 11105
L2663 11105
L2700 11123
L2719 11142
L2738 11180
L2757 11255
L2757 11348
L2738 11423
L2719 11461
L2700 11480
L2663 11498
L2625 11498
L2588 11480
L2569 11461
L2550 11423
L2532 11348
L2532 11255
L2550 11180
L2569 11142
L2588 11123
L2625 11105
" />
<path d="M3132 11498
L2907 11498
" />
<path d="M3019 11498
L3019 11105
L2982 11161
L2944 11198
L2907 11217
" />
<path d="M8013 13380
L8013 13698
L8032 13736
L8051 13755
L8088 13773
L8163 13773
L8201 13755
L8219 13736
L8238 13698
L8238 13380
" />
<path d="M8594 13511
L8594 13773
" />
<path d="M8501 13361
L8407 13642
L8651 13642
" />
<path d="M8875 13380
L8913 13380
L8950 13398
L8969 13417
L8988 13455
L9007 13530
L9007 13623
L8988 13698
L8969 13736
L8950 13755
L8913 13773
L8875 13773
L8838 13755
L8819 13736
L8800 13698
L8782 13623
L8782 13530
L8800 13455
L8819 13417
L8838 13398
L8875 13380
" />
<path d="M9382 13773
L9157 13773
" />
<path d="M9269 13773
L9269 13380
L9232 13436
L9194 13473
L9157 13492
" />
<path d="M13591 18936
L13197 18936
L13197 18786
L13216 18748
L13235 18730
L13272 18711
L13329 18711
L13366 18730
L13385 18748
L13404 18786
L13404 18936
" />
<path d="M13591 18336
L13591 18561
" />
<path d="M13591 18448
L13197 18448
L13254 18486
L13291 18523
L13310 18561
" />
<path d="M13197 18092
L13197 18055
L13216 18017
L13235 17998
L13272 17980
L13347 17961
L13441 17961
L13516 17980
L13554 17998
L13572 18017
L13591 18055
L13591 18092
L13572 18130
L13554 18148
L13516 18167
L13441 18186
L13347 18186
L13272 18167
L13235 18148
L13216 18130
L13197 18092
" />
<path d="M13235 17811
L13216 17792
L13197 17755
L13197 17661
L13216 17623
L13235 17605
L13272 17586
L13310 17586
L13366 17605
L13591 17830
L13591 17586
" />
<path d="M13591 12461
L13197 12461
L13197 12311
L13216 12273
L13235 12255
L13272 12236
L13329 12236
L13366 12255
L13385 12273
L13404 12311
L13404 12461
" />
<path d="M13591 11861
L13591 12086
" />
<path d="M13591 11973
L13197 11973
L13254 12011
L13291 12048
L13310 12086
" />
<path d="M13197 11617
L13197 11580
L13216 11542
L13235 11523
L13272 11505
L13347 11486
L13441 11486
L13516 11505
L13554 11523
L13572 11542
L13591 11580
L13591 11617
L13572 11655
L13554 11673
L13516 11692
L13441 11711
L13347 11711
L13272 11692
L13235 11673
L13216 11655
L13197 11617
" />
<path d="M13197 11355
L13197 11111
L13347 11242
L13347 11186
L13366 11148
L13385 11130
L13422 11111
L13516 11111
L13554 11130
L13572 11148
L13591 11186
L13591 11298
L13572 11336
L13554 11355
" />
</g>
<g style="fill:#C2C2C2; fill-opacity:0.0; 
stroke:#C2C2C2; stroke-width:50; stroke-opacity:1; 
stroke-linecap:round; stroke-linejoin:round;">
<path d="M12249 17277
L11949 17277
L11949 17163
L11963 17135
L11977 17120
L12006 17106
L12049 17106
L12077 17120
L12092 17135
L12106 17163
L12106 17277
" />
<path d="M12249 16820
L12249 16992
" />
<path d="M12249 16906
L11949 16906
L11992 16935
L12020 16963
L12034 16992
" />
<path d="M11949 16635
L11949 16606
L11963 16577
L11977 16563
L12006 16549
L12063 16535
L12134 16535
L12192 16549
L12220 16563
L12234 16577
L12249 16606
L12249 16635
L12234 16663
L12220 16677
L12192 16692
L12134 16706
L12063 16706
L12006 16692
L11977 16677
L11963 16663
L11949 16635
" />
<path d="M12249 16249
L12249 16420
" />
<path d="M12249 16335
L11949 16335
L11992 16363
L12020 16392
L12034 16420
" />
</g>
<g style="fill:#C2C200; fill-opacity:0.0; 
stroke:#C2C200; stroke-width:40; stroke-opacity:1; 
stroke-linecap:round; stroke-linejoin:round;">
<path d="M11194 19539
L11003 19673
" />
<path d="M11194 19768
L10794 19768
L10794 19616
L10813 19577
L10832 19558
L10870 19539
L10927 19539
L10965 19558
L10984 19577
L11003 19616
L11003 19768
" />
<path d="M10794 19425
L11194 19292
L10794 19158
" />
<path d="M10832 19044
L10813 19025
L10794 18987
L10794 18892
L10813 18854
L10832 18835
L10870 18816
L10908 18816
L10965 18835
L11194 19063
L11194 18816
" />
<path d="M10794 18568
L10794 18530
L10813 18492
L10832 18473
L10870 18454
L10946 18435
L11042 18435
L11118 18454
L11156 18473
L11175 18492
L11194 18530
L11194 18568
L11175 18606
L11156 18625
L11118 18644
L11042 18663
L10946 18663
L10870 18644
L10832 18625
L10813 18606
L10794 18568
" />
<path d="M11194 18054
L11194 18282
" />
<path d="M11194 18168
L10794 18168
L10851 18206
L10889 18244
L10908 18282
" />
<path d="M5569 19539
L5378 19673
" />
<path d="M5569 19768
L5169 19768
L5169 19616
L5188 19577
L5207 19558
L5245 19539
L5302 19539
L5340 19558
L5359 19577
L5378 19616
L5378 19768
" />
<path d="M5169 19425
L5569 19292
L5169 19158
" />
<path d="M5169 19063
L5169 18816
L5321 18949
L5321 18892
L5340 18854
L5359 18835
L5398 18816
L5493 18816
L5531 18835
L5550 18854
L5569 18892
L5569 19006
L5550 19044
L5531 19063
" />
<path d="M5169 18568
L5169 18530
L5188 18492
L5207 18473
L5245 18454
L5321 18435
L5417 18435
L5493 18454
L5531 18473
L5550 18492
L5569 18530
L5569 18568
L5550 18606
L5531 18625
L5493 18644
L5417 18663
L5321 18663
L5245 18644
L5207 18625
L5188 18606
L5169 18568
" />
<path d="M5569 18054
L5569 18282
" />
<path d="M5569 18168
L5169 18168
L5226 18206
L5264 18244
L5283 18282
" />
</g>
<g style="fill:#C2C2C2; fill-opacity:0.0; 
stroke:#C2C2C2; stroke-width:59.0551; stroke-opacity:1; 
stroke-linecap:round; stroke-linejoin:round;">
<path d="M10782 10206
L10822 9981
" />
<path d="M10623 10047
L10901 9769
L11007 9875
L11021 9914
L11021 9941
L11007 9981
L10968 10021
L10928 10034
L10901 10034
L10861 10021
L10755 9914
" />
<path d="M11140 10060
L11166 10060
L11206 10074
L11272 10140
L11286 10180
L11286 10206
L11272 10246
L11246 10272
L11193 10299
L10875 10299
L11047 10471
" />
<path d="M11498 10365
L11524 10392
L11538 10432
L11538 10458
L11524 10498
L11485 10564
L11418 10630
L11352 10670
L11312 10683
L11286 10683
L11246 10670
L11219 10644
L11206 10604
L11206 10577
L11219 10538
L11259 10471
L11325 10405
L11392 10365
L11431 10352
L11458 10352
L11498 10365
" />
<path d="M11683 10551
L11856 10723
L11657 10736
L11697 10776
L11710 10816
L11710 10842
L11697 10882
L11630 10949
L11591 10962
L11564 10962
L11524 10949
L11445 10869
L11431 10829
L11431 10803
" />
</g>
<g style="fill:#C2C200; fill-opacity:0.0; 
stroke:#C2C200; stroke-width:39.3701; stroke-opacity:1; 
stroke-linecap:round; stroke-linejoin:round;">
<path d="M16538 120
L16538 20120
" />
<path d="M138 120
L138 20120
" />
<path d="M138 20120
L16538 20120
" />
<path d="M138 120
L16538 120
" />
</g> 
</svg>
